<?xml version="1.0" encoding="UTF-8"?>
<!DOCTYPE svg PUBLIC "-//W3C//DTD SVG 1.1//EN" "http://www.w3.org/Graphics/SVG/1.1/DTD/svg11.dtd">
<!-- Creator: CorelDRAW X6 -->
<svg xmlns="http://www.w3.org/2000/svg" xml:space="preserve" width="5.5cm" height="5.5cm" version="1.1" style="shape-rendering:geometricPrecision; text-rendering:geometricPrecision; image-rendering:optimizeQuality; fill-rule:evenodd; clip-rule:evenodd"
viewBox="0 0 5500 5500"
 xmlns:xlink="http://www.w3.org/1999/xlink">
 <defs>
  <style type="text/css">
   <![CDATA[
    .fil1 {fill:#2C2C2C}
    .fil3 {fill:#2C2C2C;fill-rule:nonzero}
    .fil2 {fill:white;fill-rule:nonzero}
    .fil0 {fill:url(#id0)}
   ]]>
  </style>
  <linearGradient id="id0" gradientUnits="userSpaceOnUse" x1="181.78" y1="2763.39" x2="5339.01" y2="2763.39">
   <stop offset="0" style="stop-color:#8F8F8F"/>
   <stop offset="0.4" style="stop-color:#E6E6E6"/>
   <stop offset="0.470588" style="stop-color:#E6E6E6"/>
   <stop offset="0.529412" style="stop-color:#E6E6E6"/>
   <stop offset="1" style="stop-color:#8F8F8F"/>
  </linearGradient>
 </defs>
 <g id="Слой_x0020_1">
  <metadata id="CorelCorpID_0Corel-Layer"/>
  <g id="_279124376">
   <polygon class="fil0" points="182,271 5339,271 5339,5256 182,5256 "/>
   <polygon class="fil1" points="569,679 4952,679 4952,4903 569,4903 "/>
   <g>
    <path class="fil2" d="M4453 2045l0 80c-179,5 -325,63 -436,176 -112,113 -186,274 -223,484l13 6c63,-47 128,-81 193,-103 64,-21 135,-32 212,-32 94,0 175,21 243,65 68,44 119,105 153,185 34,79 52,172 52,277 0,115 -23,217 -69,305 -46,87 -117,156 -212,205 -96,49 -212,74 -351,74 -127,0 -236,-27 -328,-81 -91,-53 -161,-132 -209,-237 -49,-104 -73,-231 -73,-381 0,-202 41,-385 121,-548 81,-164 195,-296 344,-395 148,-99 316,-156 504,-170l66 90z"/>
    <path class="fil3" d="M4067 2834c-40,0 -77,7 -113,19 -35,13 -66,30 -93,51 -28,21 -46,38 -55,52 -9,13 -16,32 -20,58 -5,24 -6,69 -6,132 0,158 20,277 62,356 42,80 106,120 192,120 49,0 90,-10 123,-30 34,-20 61,-48 81,-84 20,-36 35,-79 44,-130 9,-50 14,-106 14,-167 0,-124 -19,-218 -58,-281 -40,-64 -96,-96 -171,-96z"/>
    <path class="fil2" d="M3247 3242c0,89 -16,166 -47,233 -31,66 -73,122 -126,166 -54,45 -116,78 -187,101 -72,22 -148,33 -230,33 -55,0 -105,-4 -153,-14 -47,-10 -88,-21 -124,-35 -36,-13 -67,-28 -91,-43 -24,-15 -41,-28 -52,-39 -11,-12 -18,-28 -23,-49 -5,-21 -7,-52 -7,-91 0,-27 1,-49 3,-68 1,-18 4,-32 8,-44 4,-11 9,-19 14,-24 7,-5 14,-7 22,-7 12,0 28,7 49,22 21,14 48,30 80,47 33,17 73,33 118,48 46,14 99,21 159,21 39,0 74,-5 105,-14 32,-11 58,-24 80,-42 22,-19 38,-41 50,-67 11,-27 17,-56 17,-89 0,-38 -10,-71 -29,-98 -20,-28 -46,-51 -77,-73 -32,-21 -68,-41 -108,-59 -40,-19 -82,-38 -124,-59 -43,-21 -85,-45 -125,-71 -40,-26 -76,-58 -107,-94 -32,-37 -58,-81 -78,-131 -19,-50 -29,-110 -29,-180 0,-80 14,-151 42,-212 28,-61 67,-111 114,-152 49,-40 105,-70 170,-90 65,-20 134,-30 207,-30 38,0 75,4 113,10 38,6 73,14 106,24 33,11 61,22 87,35 25,13 42,24 50,33 8,8 14,16 17,22 3,6 5,14 7,24 2,10 4,22 5,38 0,15 1,33 1,56 0,25 -1,46 -2,63 -1,17 -3,31 -6,43 -3,11 -7,19 -12,24 -6,6 -13,8 -22,8 -9,0 -23,-6 -43,-18 -20,-12 -44,-25 -73,-40 -28,-14 -62,-27 -99,-38 -38,-12 -79,-18 -125,-18 -35,0 -65,5 -92,14 -26,9 -48,21 -65,37 -18,16 -31,35 -40,58 -9,23 -13,46 -13,71 0,37 10,70 29,97 19,27 45,52 78,73 32,21 69,40 110,59 41,19 83,39 126,59 42,21 84,44 125,71 41,26 78,58 110,95 32,36 58,79 78,129 19,50 29,108 29,175z"/>
    <path class="fil2" d="M1972 3493c0,21 0,40 -1,55 -2,15 -4,28 -6,39 -2,11 -6,20 -10,28 -4,8 -10,17 -20,26 -8,10 -26,23 -52,38 -26,15 -57,30 -94,45 -38,13 -80,25 -128,35 -48,9 -100,14 -156,14 -108,0 -207,-18 -294,-53 -88,-36 -163,-89 -224,-159 -62,-71 -108,-158 -141,-264 -33,-105 -49,-228 -49,-368 0,-142 18,-269 54,-380 36,-110 86,-203 151,-279 64,-75 142,-131 233,-170 90,-39 190,-59 299,-59 44,0 86,4 127,12 42,8 79,18 114,31 35,12 66,27 94,43 28,17 48,31 58,43 11,11 19,21 23,29 4,8 8,17 10,29 2,13 4,27 6,43 1,17 1,37 1,61 0,26 -1,48 -2,66 -2,18 -5,33 -9,44 -4,11 -9,19 -14,24 -6,5 -13,8 -20,8 -12,0 -28,-7 -47,-23 -18,-15 -43,-31 -73,-50 -29,-19 -65,-35 -107,-50 -41,-15 -90,-23 -147,-23 -63,0 -119,14 -169,41 -49,27 -91,66 -126,116 -35,51 -61,112 -80,184 -18,71 -26,152 -26,242 0,98 9,184 29,256 19,71 46,131 82,178 35,46 78,81 129,104 50,23 107,34 170,34 57,0 106,-7 148,-21 42,-14 77,-30 107,-47 30,-17 55,-33 74,-46 19,-14 34,-21 45,-21 8,0 14,2 19,5 5,4 9,10 13,21 3,10 5,25 7,43 1,19 2,44 2,76z"/>
   </g>
  </g>
 </g>
</svg>
