<?xml version="1.0" encoding="utf-8"?>
<!-- Generator: Adobe Illustrator 23.0.1, SVG Export Plug-In . SVG Version: 6.00 Build 0)  -->
<svg version="1.1" id="Layer_1" xmlns="http://www.w3.org/2000/svg" xmlns:xlink="http://www.w3.org/1999/xlink" x="0px" y="0px"
	 viewBox="0 0 500 372.47" style="enable-background:new 0 0 500 372.47;" xml:space="preserve">
<style type="text/css">
	.st0{fill:#FFFFFF;}
	.st1{clip-path:url(#SVGID_2_);fill:#DA1F26;}
</style>
<g>
	<polygon class="st0" points="486.75,196.96 475.42,196.96 475.42,185.62 464.09,185.62 464.09,196.96 452.75,196.96 452.75,208.29 
		464.09,208.29 464.09,219.62 475.42,219.62 475.42,208.29 486.75,208.29 	"/>
</g>
<g>
	<polygon class="st0" points="405.55,166.51 394.22,166.51 394.22,155.18 382.89,155.18 382.89,166.51 371.55,166.51 371.55,177.84 
		382.89,177.84 382.89,189.18 394.22,189.18 394.22,177.84 405.55,177.84 	"/>
</g>
<g>
	<g>
		<g>
			<defs>
				<rect id="SVGID_1_" x="-1" width="500" height="368.77"/>
			</defs>
			<clipPath id="SVGID_2_">
				<use xlink:href="#SVGID_1_"  style="overflow:visible;"/>
			</clipPath>
			<path class="st1" d="M499,176.15v16.46c-0.16,0.89-0.35,1.77-0.46,2.66c-0.85,7.16-1.4,14.37-2.58,21.47
				c-3.84,23.1-12.15,44.57-24.5,64.42c-18.75,30.14-44.09,53.12-75.95,68.82c-18.38,9.1-38.2,14.95-58.58,17.29
				c-4.53,0.52-9.05,0.99-13.58,1.49H147.7c-0.88-0.16-1.77-0.43-2.66-0.48c-17.71-1.12-34.75-5.15-51-12.26
				c-35.36-15.47-61.73-40.55-78.99-75.07c-7.63-15.23-12.56-31.66-14.59-48.56c-0.5-4.11-0.98-8.22-1.47-12.33v-15.97
				c0.17-0.88,0.43-1.77,0.48-2.66c0.92-15.35,4.07-30.25,9.61-44.57C24,118.33,50,89.74,86.96,71.25
				c19.17-9.6,39.61-14.65,60.98-15.77c10.47-0.54,20.92,0.04,31.33,1.44c0.94,0.13,2.3-0.29,2.95-0.96
				c14.96-15.28,31.99-27.69,51.2-37.1c18.63-9.12,38.23-15,58.87-17.36c4.86-0.56,9.72-1.01,14.59-1.51h14.98
				c0.98,0.15,1.96,0.33,2.94,0.44c7.42,0.86,14.88,1.41,22.23,2.64c22.93,3.85,44.28,12.08,64.03,24.3
				c30.29,18.75,53.37,44.13,69.14,76.08c9.12,18.39,14.98,38.23,17.3,58.63C498.05,166.77,498.5,171.47,499,176.15 M219.43,69.64
				c0.3,0.4,0.37,0.58,0.5,0.64c10.28,5.07,20.11,11.01,29.38,17.77c0.58,0.42,2.03,0.25,2.74-0.2
				c25.47-16.14,53.07-21.7,82.72-16.44c29.06,5.15,52.7,19.67,70.77,42.86c20.46,26.24,28.26,55.92,22.61,88.93
				c-3.79,22.13-12.65,41.98-27.72,58.61c-27.49,30.32-61.91,42.86-102.44,37.55c-24.95-3.27-46.48-14.03-64.3-32.04
				c-22.88-23.11-45.9-46.06-68.84-69.11c-3.06-3.07-6.46-5.54-10.86-6.08c-7.69-0.94-14.67,2.9-17.99,9.81
				c-2.96,6.17-2.58,13.12,3.85,19.44c25.58,25.11,50.93,50.44,76.47,75.58c4.37,4.32,9.06,8.31,14.03,11.94
				c18.66,13.55,39.7,21.05,62.49,24.06c17.88,2.36,35.63,1.86,53.24-2.1c33.59-7.54,61.41-24.69,83.33-51.14
				c18.09-21.86,29.04-46.98,32.85-75.18c2.21-16.08,1.75-32.42-1.37-48.35c-5.08-26.05-16.1-49.36-33.76-69.2
				c-33.69-37.83-76.08-54.72-126.52-50.95c-19.4,1.45-37.76,7.15-55.03,16.19C236.26,57.06,227.49,62.9,219.43,69.64
				 M207.09,333.74c-0.69-0.64-1.39-1.29-2.07-1.94c-10.46-9.87-20.97-19.68-31.3-29.68c-2-1.93-3.84-2.88-6.67-2.81
				c-10.47,0.26-20.94,0.3-31.25-2.03c-51.28-11.6-81.05-67.35-62.15-116.4c14.91-38.68,56.17-62.23,96.86-54.97
				c18.24,3.26,34.25,10.98,47.39,24.53c16.02,16.54,32.53,32.61,48.72,48.99c3.69,3.73,7.92,5.43,13.03,4.7
				c6.6-0.94,11.86-4.09,14.24-10.56c2.34-6.37,1.21-12.4-3.62-17.29c-17-17.22-33.6-34.88-51.28-51.37
				c-34.3-32-74.76-41.51-119.5-27.91c-60.18,18.28-95.4,80.42-81.65,141.74c12.53,55.87,61.39,95.08,118.56,95.13
				c15.96,0.02,31.93,0.01,47.89,0C205.08,333.87,205.87,333.8,207.09,333.74"/>
		</g>
	</g>
</g>
</svg>
