<?xml version="1.0" encoding="utf-8"?>
<!-- Generator: Adobe Illustrator 23.0.1, SVG Export Plug-In . SVG Version: 6.00 Build 0)  -->
<svg version="1.1" id="Layer_1" xmlns="http://www.w3.org/2000/svg" xmlns:xlink="http://www.w3.org/1999/xlink" x="0px" y="0px"
	 viewBox="0 0 500 296.35" style="enable-background:new 0 0 500 296.35;" xml:space="preserve">
<style type="text/css">
	.st0{fill:#252F3E;}
	.st1{fill-rule:evenodd;clip-rule:evenodd;fill:#FF9900;}
</style>
<g>
	<path class="st0" d="M141.97,108.56c0,6.07,0.66,10.99,1.8,14.6c1.31,3.61,2.95,7.54,5.25,11.81c0.82,1.31,1.15,2.62,1.15,3.77
		c0,1.64-0.98,3.28-3.12,4.92l-10.33,6.89c-1.48,0.98-2.95,1.48-4.26,1.48c-1.64,0-3.28-0.82-4.92-2.3c-2.3-2.46-4.26-5.08-5.9-7.71
		c-1.64-2.79-3.28-5.9-5.08-9.68c-12.79,15.09-28.87,22.63-48.22,22.63c-13.78,0-24.77-3.94-32.8-11.81
		c-8.04-7.87-12.14-18.37-12.14-31.49c0-13.94,4.92-25.26,14.93-33.79c10-8.53,23.29-12.79,40.18-12.79
		c5.58,0,11.32,0.49,17.39,1.31s12.3,2.13,18.86,3.61V58.04c0-12.47-2.62-21.16-7.71-26.24c-5.25-5.08-14.11-7.54-26.73-7.54
		c-5.74,0-11.65,0.66-17.71,2.13c-6.07,1.48-11.97,3.28-17.71,5.58c-2.62,1.15-4.59,1.8-5.74,2.13c-1.15,0.33-1.97,0.49-2.62,0.49
		c-2.3,0-3.44-1.64-3.44-5.08v-8.04c0-2.62,0.33-4.59,1.15-5.74s2.3-2.3,4.59-3.44c5.74-2.95,12.63-5.41,20.67-7.38
		c8.04-2.13,16.57-3.12,25.59-3.12c19.52,0,33.79,4.43,42.97,13.29c9.02,8.86,13.61,22.31,13.61,40.35v53.14h0.29V108.56z
		 M75.38,133.49c5.41,0,10.99-0.98,16.89-2.95s11.15-5.58,15.58-10.5c2.62-3.12,4.59-6.56,5.58-10.5c0.98-3.94,1.64-8.69,1.64-14.27
		v-6.89c-4.76-1.15-9.84-2.13-15.09-2.79s-10.33-0.98-15.42-0.98c-10.99,0-19.03,2.13-24.44,6.56s-8.04,10.66-8.04,18.86
		c0,7.71,1.97,13.45,6.07,17.39C62.1,131.52,67.84,133.49,75.38,133.49z M207.09,151.2c-2.95,0-4.92-0.49-6.23-1.64
		c-1.31-0.98-2.46-3.28-3.44-6.4L158.87,16.38c-0.98-3.28-1.48-5.41-1.48-6.56c0-2.62,1.31-4.1,3.94-4.1h16.07
		c3.12,0,5.25,0.49,6.4,1.64c1.31,0.98,2.3,3.28,3.28,6.4l27.55,108.58l25.59-108.58c0.82-3.28,1.8-5.41,3.12-6.4
		c1.31-0.98,3.61-1.64,6.56-1.64h13.12c3.12,0,5.25,0.49,6.56,1.64c1.31,0.98,2.46,3.28,3.12,6.4l25.91,109.89l28.37-109.89
		c0.98-3.28,2.13-5.41,3.28-6.4c1.31-0.98,3.44-1.64,6.4-1.64h15.25c2.62,0,4.1,1.31,4.1,4.1c0,0.82-0.16,1.64-0.33,2.62
		c-0.16,0.98-0.49,2.3-1.15,4.1L315,143.32c-0.98,3.28-2.13,5.41-3.44,6.4c-1.31,0.98-3.44,1.64-6.23,1.64h-14.11
		c-3.12,0-5.25-0.49-6.56-1.64s-2.46-3.28-3.12-6.56L256.13,37.37L230.87,143c-0.82,3.28-1.8,5.41-3.12,6.56
		c-1.31,1.15-3.61,1.64-6.56,1.64H207.09z M417.85,155.63c-8.53,0-17.06-0.98-25.26-2.95s-14.6-4.1-18.86-6.56
		c-2.62-1.48-4.43-3.12-5.08-4.59c-0.66-1.48-0.98-3.12-0.98-4.59v-8.36c0-3.44,1.31-5.08,3.77-5.08c0.98,0,1.97,0.16,2.95,0.49
		c0.98,0.33,2.46,0.98,4.1,1.64c5.58,2.46,11.65,4.43,18.04,5.74c6.56,1.31,12.96,1.97,19.52,1.97c10.33,0,18.37-1.8,23.95-5.41
		c5.58-3.61,8.53-8.86,8.53-15.58c0-4.59-1.48-8.36-4.43-11.48c-2.95-3.12-8.53-5.9-16.57-8.53l-23.78-7.38
		c-11.97-3.77-20.83-9.35-26.24-16.73c-5.41-7.22-8.2-15.25-8.2-23.78c0-6.89,1.48-12.96,4.43-18.21
		c2.95-5.25,6.89-9.84,11.81-13.45c4.92-3.77,10.5-6.56,17.06-8.53s13.45-2.79,20.67-2.79c3.61,0,7.38,0.16,10.99,0.66
		c3.77,0.49,7.22,1.15,10.66,1.8c3.28,0.82,6.4,1.64,9.35,2.62s5.25,1.97,6.89,2.95c2.3,1.31,3.94,2.62,4.92,4.1
		c0.98,1.31,1.48,3.12,1.48,5.41v7.71c0,3.44-1.31,5.25-3.77,5.25c-1.31,0-3.44-0.66-6.23-1.97c-9.35-4.26-19.85-6.4-31.49-6.4
		c-9.35,0-16.73,1.48-21.81,4.59c-5.08,3.12-7.71,7.87-7.71,14.6c0,4.59,1.64,8.53,4.92,11.65c3.28,3.12,9.35,6.23,18.04,9.02
		l23.29,7.38c11.81,3.77,20.34,9.02,25.42,15.75c5.08,6.72,7.54,14.43,7.54,22.96c0,7.05-1.48,13.45-4.26,19.03
		c-2.95,5.58-6.89,10.5-11.97,14.43c-5.08,4.1-11.15,7.05-18.21,9.18C433.92,154.48,426.21,155.63,417.85,155.63z"/>
	<g>
		<path class="st1" d="M448.85,235.34c-53.96,39.86-132.36,61.01-199.77,61.01c-94.47,0-179.6-34.94-243.89-93
			c-5.08-4.59-0.49-10.83,5.58-7.22c69.54,40.35,155.32,64.79,244.06,64.79c59.87,0,125.64-12.47,186.16-38.05
			C449.99,218.78,457.7,228.78,448.85,235.34z"/>
		<path class="st1" d="M471.32,209.75c-6.89-8.86-45.6-4.26-63.15-2.13c-5.25,0.66-6.07-3.94-1.31-7.38
			c30.83-21.65,81.52-15.42,87.42-8.2c5.9,7.38-1.64,58.06-30.51,82.34c-4.43,3.77-8.69,1.8-6.72-3.12
			C463.61,255.02,478.21,218.45,471.32,209.75z"/>
	</g>
</g>
</svg>
