<?xml version="1.0" encoding="utf-8"?>
<!-- Generator: Adobe Illustrator 23.0.1, SVG Export Plug-In . SVG Version: 6.00 Build 0)  -->
<svg version="1.1" id="Layer_1" xmlns="http://www.w3.org/2000/svg" xmlns:xlink="http://www.w3.org/1999/xlink" x="0px" y="0px"
	 viewBox="0 0 420.9 472.2" style="enable-background:new 0 0 420.9 472.2;" xml:space="preserve">
<style type="text/css">
	.st0{fill:#253858;}
	.st1{fill:url(#SVGID_1_);}
	.st2{fill:url(#SVGID_2_);}
</style>
<title>Confluence-blue</title>
<g>
	<g id="Blue">
		<path class="st0" d="M45,468.4c-3.6,2.4-9.3,3.4-15.3,3.4c-19,0-29.7-11.4-29.7-29.6c0-17.6,10.7-29.9,29.6-29.9
			c5.6,0,11.3,1.1,15.4,4v7.7c-4.1-2.6-8.7-4-15.4-4c-13.6,0-21.7,9-21.7,22.3c0,13.3,8.4,22.1,22.1,22.1c5.2,0,10.4-1.2,15-3.5
			L45,468.4z"/>
		<path class="st0" d="M50.6,448.9c0-13.2,7.7-22.8,20.9-22.8s20.8,9.6,20.8,22.8c0,13.2-7.7,23-20.8,23S50.6,462.1,50.6,448.9z
			 M58,448.9c0,8.4,4.1,15.9,13.6,15.9s13.4-7.6,13.4-15.9c0-8.4-4-15.8-13.4-15.8S58,440.5,58,448.9L58,448.9z"/>
		<path class="st0" d="M138.5,471h-7.6v-26.6c0-7.9-3.2-11.4-10.4-11.4c-7,0-11.9,4.7-11.9,13.5V471h-7.6v-44h7.6v7.2
			c2.7-5.1,8.1-8.2,13.9-8.1c10.1,0,15.9,7,15.9,19.1L138.5,471z"/>
		<path class="st0" d="M159.6,427h11.4v7h-11.4v37h-7.4v-37h-7.1v-7h7.1v-4.8c0-8.2,4.6-13.7,14-13.7c1.7,0,3.4,0.2,5.1,0.7v7
			c-1.6-0.3-3.2-0.4-4.8-0.4c-4.7,0-7,2.7-7,6.7L159.6,427z"/>
		<path class="st0" d="M190.9,471.2c-7.2,0-11.8-3.4-11.8-11.5v-51.1h7.6v50.2c0,4,2.6,5.4,5.9,5.4c0.7,0,1.5,0,2.2-0.1v6.8
			C193.5,471.1,192.2,471.3,190.9,471.2z"/>
		<path class="st0" d="M201.2,427h7.6v26.6c0,7.9,3.2,11.4,10.4,11.4c7,0,11.9-4.7,11.9-13.5V427h7.6v44H231v-7.2
			c-2.7,5.1-8.1,8.2-13.9,8.1c-10.1,0-15.9-7-15.9-19.1L201.2,427z"/>
		<path class="st0" d="M271,471.8c-16.5,0-23.7-9.5-23.7-23c0-13.3,7.4-22.8,20.8-22.8c13.5,0,19,9.4,19,22.8v3.4H255
			c1.1,7.5,5.9,12.3,16.3,12.3c4.6,0,9.1-0.8,13.4-2.4v7C281.1,471.1,275.5,471.8,271,471.8z M254.9,445.8h24.5
			c-0.4-8.2-4.1-12.8-11.7-12.8C259.8,432.9,255.7,438.1,254.9,445.8L254.9,445.8z"/>
		<path class="st0" d="M333.5,471h-7.6v-26.6c0-7.9-3.2-11.4-10.4-11.4c-7,0-11.9,4.7-11.9,13.5V471h-7.6v-44h7.6v7.2
			c2.7-5.1,8.1-8.2,13.9-8.1c10.1,0,15.9,7,15.9,19.1L333.5,471z"/>
		<path class="st0" d="M375.1,469.8c-2.6,1.4-6.7,2-10.7,2c-15.7,0-23-9.5-23-23c0-13.3,7.3-22.8,23-22.8c3.6-0.1,7.2,0.6,10.5,2.1
			v7c-3.1-1.5-6.5-2.2-9.9-2.1c-11.4,0-16.1,7.2-16.1,15.8s4.8,15.9,16.3,15.9c3.4,0.1,6.8-0.4,10-1.6L375.1,469.8z"/>
		<path class="st0" d="M404.8,471.8c-16.5,0-23.7-9.5-23.7-23c0-13.3,7.4-22.8,20.8-22.8c13.5,0,19,9.4,19,22.8v3.4h-32.1
			c1.1,7.5,5.9,12.3,16.3,12.3c4.6,0,9.1-0.8,13.4-2.4v7C414.8,471.1,409.3,471.8,404.8,471.8z M388.7,445.8h24.5
			c-0.4-8.2-4.1-12.8-11.7-12.8C393.5,432.9,389.5,438.1,388.7,445.8L388.7,445.8z"/>
		
			<linearGradient id="SVGID_1_" gradientUnits="userSpaceOnUse" x1="378.2235" y1="504.5692" x2="148.0793" y2="636.8158" gradientTransform="matrix(1 0 0 -1 0 882.7802)">
			<stop  offset="0.18" style="stop-color:#0052CC"/>
			<stop  offset="1" style="stop-color:#2684FF"/>
		</linearGradient>
		<path class="st1" d="M42.1,272.1c-3.8,6.2-8.1,13.4-11.7,19.1c-3.2,5.5-1.5,12.6,3.9,15.9l76.1,46.8c5.5,3.4,12.7,1.7,16.1-3.8
			c0-0.1,0.1-0.1,0.1-0.2c3-5.1,7-11.7,11.2-18.8c30.1-49.7,60.4-43.7,115.1-17.6l75.4,35.9c5.8,2.8,12.8,0.3,15.6-5.5
			c0-0.1,0.1-0.2,0.1-0.3l36.2-81.9c2.6-5.9,0-12.7-5.9-15.3c-15.9-7.5-47.6-22.4-76.1-36.2C195.9,160.5,108.7,163.7,42.1,272.1z"/>
		
			<linearGradient id="SVGID_2_" gradientUnits="userSpaceOnUse" x1="57.0029" y1="2108.8523" x2="-173.1999" y2="2241.1572" gradientTransform="matrix(-1 0 0 1 103.99 -2128.71)">
			<stop  offset="0.18" style="stop-color:#0052CC"/>
			<stop  offset="1" style="stop-color:#2684FF"/>
		</linearGradient>
		<path class="st2" d="M383.2,86.2c3.8-6.2,8.1-13.4,11.7-19.1c3.2-5.5,1.5-12.6-3.9-15.9L314.9,4.3c-5.4-3.6-12.6-2.2-16.2,3.2
			c-0.2,0.2-0.3,0.5-0.4,0.7c-3,5.1-7,11.7-11.2,18.8c-30.1,49.7-60.4,43.7-115.1,17.6L96.7,8.8c-5.8-2.8-12.8-0.3-15.6,5.5
			c0,0.1-0.1,0.2-0.1,0.3L44.7,96.6c-2.6,5.9,0,12.7,5.9,15.3c15.9,7.5,47.6,22.4,76.1,36.2C229.4,197.9,316.5,194.5,383.2,86.2z"/>
	</g>
</g>
</svg>
