<?xml version="1.0" encoding="utf-8"?>
<!-- Generator: Adobe Illustrator 23.0.1, SVG Export Plug-In . SVG Version: 6.00 Build 0)  -->
<svg version="1.1" id="Layer_1" xmlns="http://www.w3.org/2000/svg" xmlns:xlink="http://www.w3.org/1999/xlink" x="0px" y="0px"
	 viewBox="0 0 306 344.35" style="enable-background:new 0 0 306 344.35;" xml:space="preserve">
<style type="text/css">
	.st0{fill:#00599C;}
	.st1{fill:#004482;}
	.st2{fill:#659AD2;}
	.st3{fill:#FFFFFF;}
</style>
<path class="st0" d="M302.11,258.26c2.4-4.16,3.89-8.85,3.89-13.05V99.14c0-4.21-1.49-8.89-3.89-13.05L153,172.18L302.11,258.26z"/>
<path class="st1" d="M166.25,341.19l126.5-73.03c3.64-2.1,6.96-5.74,9.36-9.9L153,172.17L3.89,258.26c2.4,4.16,5.71,7.79,9.36,9.9
	l126.5,73.03C147.04,345.4,158.97,345.4,166.25,341.19z"/>
<path class="st2" d="M302.11,86.09c-2.4-4.16-5.71-7.79-9.36-9.9L166.25,3.16c-7.29-4.21-19.21-4.21-26.5,0L13.25,76.19
	C5.96,80.4,0,90.72,0,99.14v146.07c0,4.21,1.49,8.89,3.89,13.05L153,172.17L302.11,86.09z"/>
<g>
	<path class="st3" d="M153,274.17c-56.24,0-102-45.76-102-102s45.76-102,102-102c36.29,0,70.14,19.53,88.33,50.97l-44.14,25.54
		c-9.11-15.74-26.04-25.51-44.19-25.51c-28.12,0-51,22.88-51,51s22.88,51,51,51c18.15,0,35.08-9.78,44.19-25.51l44.14,25.54
		C223.15,254.64,189.3,274.17,153,274.17z"/>
</g>
<g>
	<polygon class="st3" points="255,166.51 243.67,166.51 243.67,155.18 232.34,155.18 232.34,166.51 221,166.51 221,177.84 
		232.34,177.84 232.34,189.18 243.67,189.18 243.67,177.84 255,177.84 	"/>
</g>
<g>
	<polygon class="st3" points="297.5,166.51 286.17,166.51 286.17,155.18 274.84,155.18 274.84,166.51 263.5,166.51 263.5,177.84 
		274.84,177.84 274.84,189.18 286.17,189.18 286.17,177.84 297.5,177.84 	"/>
</g>
</svg>
