<?xml version="1.0" encoding="utf-8"?>
<!-- Generator: Adobe Illustrator 23.0.1, SVG Export Plug-In . SVG Version: 6.00 Build 0)  -->
<svg version="1.1" id="Layer_1" xmlns="http://www.w3.org/2000/svg" xmlns:xlink="http://www.w3.org/1999/xlink" x="0px" y="0px"
	 viewBox="0 0 290.19 407.42" style="enable-background:new 0 0 290.19 407.42;" xml:space="preserve">
<style type="text/css">
	.st0{fill:#FFFFFF;}
	.st1{fill:#264DE4;}
	.st2{fill:#2965F1;}
	.st3{fill:#EBEBEB;}
</style>
<g>
	<polygon class="st0" points="370.75,196.96 359.42,196.96 359.42,185.62 348.09,185.62 348.09,196.96 336.75,196.96 336.75,208.29 
		348.09,208.29 348.09,219.62 359.42,219.62 359.42,208.29 370.75,208.29 	"/>
</g>
<g>
	<polygon class="st0" points="289.55,166.51 278.22,166.51 278.22,155.18 266.89,155.18 266.89,166.51 255.55,166.51 255.55,177.84 
		266.89,177.84 266.89,189.18 278.22,189.18 278.22,177.84 289.55,177.84 	"/>
</g>
<g id="layer1" transform="translate(-193.633,-276.3622)">
	<g id="g3013" transform="translate(119,276.3622)">
		<polygon id="polygon2989" class="st1" points="364.82,78.32 338.38,374.48 219.55,407.42 101.04,374.53 74.63,78.32 		"/>
		<polygon id="polygon2991" class="st2" points="315.75,355.62 338.34,102.54 219.73,102.54 219.73,382.24 		"/>
		<polygon id="polygon2993" class="st3" points="135.17,212.4 138.43,248.73 219.73,248.73 219.73,212.4 		"/>
		<polygon id="polygon2995" class="st3" points="219.73,138.87 219.6,138.87 128.63,138.87 131.93,175.2 219.73,175.2 		"/>
		<polygon id="polygon2997" class="st3" points="219.73,344.54 219.73,306.75 219.57,306.79 179.11,295.86 176.52,266.89 
			156.86,266.89 140.05,266.89 145.14,323.93 219.56,344.59 		"/>
		<path id="path2999" d="M142.93-2.18h44v18.4h-25.6v18.4h25.6v18.4h-44V-2.18z"/>
		<path id="path3001" d="M195.73-2.18h44v16h-25.6v3.2h25.6v36.8h-44v-16.8h25.6v-3.2h-25.6V-2.18z"/>
		<path id="path3003" d="M248.53-2.18h44v16h-25.6v3.2h25.6v36.8h-44v-16.8h25.6v-3.2h-25.6V-2.18z"/>
		<polygon id="polygon3005" class="st0" points="264.34,248.73 260.12,295.84 219.6,306.78 219.6,344.57 294.08,323.93 
			294.62,317.79 303.16,222.15 304.05,212.4 310.6,138.87 219.6,138.87 219.6,175.2 270.79,175.2 267.49,212.4 219.6,212.4 
			219.6,248.73 		"/>
	</g>
</g>
</svg>
