<?xml version="1.0" encoding="utf-8"?>
<!-- Generator: Adobe Illustrator 23.0.1, SVG Export Plug-In . SVG Version: 6.00 Build 0)  -->
<svg version="1.1" id="Layer_1" xmlns="http://www.w3.org/2000/svg" xmlns:xlink="http://www.w3.org/1999/xlink" x="0px" y="0px"
	 viewBox="0 0 500 208.69" style="enable-background:new 0 0 500 208.69;" xml:space="preserve">
<style type="text/css">
	.st0{fill:#FFFFFF;}
	.st1{fill:#413000;}
	.st2{fill:#F05133;}
</style>
<g>
	<polygon class="st0" points="405.55,116.18 394.22,116.18 394.22,104.85 382.89,104.85 382.89,116.18 371.55,116.18 371.55,127.51 
		382.89,127.51 382.89,138.85 394.22,138.85 394.22,127.51 405.55,127.51 	"/>
</g>
<path class="st1" d="M299.65,70.93c-10.96,0-19.13,5.38-19.13,18.34c0,9.76,5.38,16.54,18.54,16.54c11.15,0,18.72-6.57,18.72-16.94
	C317.78,77.11,311,70.93,299.65,70.93L299.65,70.93z M277.72,162.4c-2.59,3.18-5.18,6.57-5.18,10.56c0,7.96,10.16,10.36,24.11,10.36
	c11.56,0,27.3-0.81,27.3-11.56c0-6.39-7.57-6.78-17.14-7.38L277.72,162.4L277.72,162.4z M336.7,71.53
	c3.58,4.58,7.37,10.96,7.37,20.13c0,22.12-17.34,35.07-42.44,35.07c-6.38,0-12.16-0.8-15.75-1.79l-6.58,10.56l19.53,1.19
	c34.48,2.2,54.8,3.19,54.8,29.69c0,22.92-20.12,35.87-54.8,35.87c-36.07,0-49.81-9.17-49.81-24.91c0-8.97,3.99-13.74,10.96-20.33
	c-6.58-2.78-8.77-7.76-8.77-13.14c0-4.39,2.19-8.37,5.78-12.16c3.59-3.78,7.57-7.57,12.35-11.96c-9.76-4.78-17.14-15.14-17.14-29.89
	c0-22.91,15.15-38.65,45.63-38.65c8.57,0,13.75,0.79,18.34,1.99h38.86v16.93L336.7,71.53"/>
<path class="st1" d="M390.12,35.32c-11.36,0-17.93-6.58-17.93-17.94c0-11.35,6.57-17.53,17.93-17.53c11.56,0,18.13,6.18,18.13,17.53
	C408.25,28.74,401.67,35.32,390.12,35.32z M364.41,155.07v-15.73l10.17-1.39c2.79-0.4,3.19-1,3.19-3.99V75.37
	c0-2.19-0.6-3.59-2.59-4.18l-10.76-3.79l2.19-16.13h41.25v82.69c0,3.19,0.19,3.59,3.19,3.99l10.16,1.39v15.73L364.41,155.07"/>
<path class="st1" d="M500,147.34c-8.57,4.18-21.12,7.97-32.49,7.97c-23.71,0-32.68-9.56-32.68-32.08v-52.2c0-1.19,0-1.99-1.6-1.99
	h-13.95V51.31c17.54-2,24.51-10.77,26.7-32.49h18.93v28.31c0,1.39,0,1.99,1.6,1.99h28.09v19.92h-29.69v47.62
	c0,11.76,2.79,16.34,13.55,16.34c5.59,0,11.36-1.39,16.14-3.19L500,147.34"/>
<path class="st2" d="M204.75,95.05L113.63,3.94c-5.24-5.25-13.75-5.25-19,0L75.71,22.87l24,24c5.58-1.88,11.97-0.62,16.42,3.83
	c4.47,4.47,5.72,10.92,3.79,16.52l23.13,23.13c5.6-1.93,12.05-0.68,16.52,3.79c6.25,6.25,6.25,16.37,0,22.61
	c-6.25,6.25-16.37,6.25-22.62,0c-4.7-4.7-5.86-11.6-3.48-17.39L111.9,77.79v56.77c1.52,0.75,2.96,1.76,4.23,3.02
	c6.25,6.24,6.25,16.36,0,22.62c-6.25,6.24-16.37,6.24-22.61,0c-6.25-6.25-6.25-16.37,0-22.62c1.54-1.54,3.33-2.71,5.24-3.49V76.8
	c-1.91-0.78-3.69-1.94-5.24-3.49c-4.73-4.73-5.87-11.67-3.44-17.48L66.41,32.16L3.94,94.63c-5.25,5.25-5.25,13.76,0,19.01
	l91.11,91.11c5.25,5.25,13.75,5.25,19.01,0l90.69-90.68C209.99,108.82,209.99,100.31,204.75,95.05"/>
</svg>
