<?xml version="1.0" encoding="utf-8"?>
<!-- Generator: Adobe Illustrator 23.0.1, SVG Export Plug-In . SVG Version: 6.00 Build 0)  -->
<svg version="1.1" id="Layer_1" xmlns="http://www.w3.org/2000/svg" xmlns:xlink="http://www.w3.org/1999/xlink" x="0px" y="0px"
	 viewBox="0 0 492.66 409.63" style="enable-background:new 0 0 492.66 409.63;" xml:space="preserve">
<style type="text/css">
	.st0{fill:#FEFEFE;}
	.st1{fill:#201F1F;}
	.st2{fill:#9BD9EF;}
	.st3{fill:#7CB9E5;}
	.st4{fill:#9CD9EF;}
	.st5{fill:#020203;}
	.st6{fill:#F3C9B0;}
	.st7{fill:#C39A85;}
	.st8{fill:#FCFCFC;}
	.st9{fill:#98D4E9;}
	.st10{fill:#99D6EC;}
	.st11{fill:#99D6EB;}
	.st12{fill:#98D4EA;}
	.st13{fill:#97D3E8;}
	.st14{fill:#98D5EA;}
	.st15{fill:#95CFE4;}
	.st16{fill:#AC5C51;}
	.st17{fill:#AB5C51;}
	.st18{fill:#FDFCFC;}
	.st19{fill:#FDFBFB;}
</style>
<g>
	<g>
		<path class="st0" d="M0.85,410.5c0-136.54,0-273.08,0-409.63c164.22,0,328.44,0,492.66,0c0,136.54,0,273.08,0,409.63
			C329.29,410.5,165.07,410.5,0.85,410.5z M219.85,400.56c4.67,0.26,9.34,0.53,14.02,0.79c5.37,0.15,10.74,0.3,16.11,0.45
			c7.59-0.36,15.18-0.72,22.77-1.07c2.67-0.21,5.34-0.41,8.01-0.62c6.94-0.87,13.87-1.75,20.81-2.62c0.41,0.01,0.83,0.1,1.22,0.03
			c15.03-2.59,29.85-6.03,43.97-11.89c9.09-3.77,17.79-8.31,24.65-15.71c7.14-7.7,7.67-16.77,1.5-25.08
			c-4.08-5.49-9.54-9.24-15.39-12.43c-17.47-9.53-36.55-13.96-55.97-17.22c-0.06-1.12-0.17-2.23-0.17-3.35
			c-0.01-13.08,0.13-26.16-0.08-39.24c-0.08-4.95-0.93-9.88-1.43-14.82c-1.98-10.49-7.49-18.73-15.95-25.09
			c0.47-0.16,0.92-0.38,1.4-0.46c8.98-1.49,18.08-2.45,26.92-4.52c25.88-6.08,48.12-17.46,59.68-43.42
			c22.33,0.67,44.47,2.47,66.38,6.44c11.56,2.09,22.98,4.99,34.47,7.48c0.83,0.18,1.73,0.02,2.6,0.02c0.02-0.38,0.03-0.76,0.05-1.13
			c-33.48-9.36-67.78-13.3-102.66-14.59c0.61-1.74,1.04-2.99,1.48-4.23c0.47-1.31,0.94-2.62,1.39-3.87
			c24.14-1.13,47.99-0.53,71.75,2.27c8.84,1.04,17.62,2.58,26.43,3.85c0.79,0.11,1.63-0.14,2.45-0.22
			c-0.03-0.35-0.05-0.71-0.08-1.06c-33-6.49-66.37-7.91-100.09-6.69c4.04-15.6,4.85-31.21,4.94-46.92
			c0.13-23.49-7.44-43.94-23.56-61.16c-0.78-0.83-1.29-2.54-1.01-3.62c4.28-16.89,2.37-33.3-3.48-49.47
			c-0.63-1.73-1.59-2.61-3.34-2.44c-4.57,0.45-9.24,0.51-13.67,1.57c-14.21,3.4-26.78,10.48-38.91,18.37
			c-1.75,1.13-3.23,1.52-5.36,1.03c-32.74-7.4-65.42-6.95-97.97,1.23c-1.92,0.48-3.25,0.17-4.79-0.87
			c-10.37-7-21.2-13.16-33.02-17.41c-6.87-2.47-13.9-4.34-21.29-3.88c-1.18,0.07-2.97,0.9-3.33,1.82
			c-6.69,17.4-8.52,35.13-2.79,53.17c0.69,2.17,0.34,3.41-1.11,5.06c-7.54,8.54-13.09,18.26-16.48,29.17
			c-5.89,18.93-4.49,38.07-1.43,57.19c0.91,5.7,2.61,11.27,3.85,16.47c-16.18,0.41-32.47,0.54-48.73,1.3
			c-16.27,0.77-32.43,2.76-48.29,6.84c1.37,0.55,2.69,0.53,3.96,0.29c30.57-5.66,61.41-7.19,92.43-6.01
			c0.76,0.03,1.89,0.46,2.19,1.04c1.13,2.23,1.99,4.59,3.1,7.26c-34.43,1.31-68.08,5.31-100.9,15.08c0.86,0.57,1.73,0.75,2.5,0.54
			c31.78-8.69,64.27-12.44,97.09-13.88c1.8-0.08,2.71,0.43,3.6,2c6.56,11.57,15.71,20.62,27.03,27.55
			c13.46,8.23,28.24,12.81,43.6,15.77c5.88,1.13,11.79,2.04,17.69,3.05c-2.64,2.68-5.28,5.36-7.92,8.04
			c-0.41,0.42-0.99,0.76-1.21,1.26c-2.48,5.52-4.9,11.07-7.34,16.61c-0.42,0.18-0.84,0.36-1.26,0.53c-1.91,0.73-3.78,1.54-5.72,2.17
			c-14.77,4.82-28.77,4.18-40.7-6.89c-3.84-3.56-6.86-8.09-9.84-12.46c-5.45-8.01-12.19-14.3-21.52-17.41
			c-4.83-1.61-9.77-2.37-14.72-0.47c-3.1,1.2-3.71,3.37-1.3,5.61c2.07,1.92,4.49,3.59,7.01,4.85c7.29,3.62,12.87,8.98,17.07,15.87
			c1.91,3.14,3.76,6.33,5.55,9.54c13.97,25.12,38.39,29.55,62.98,23.87c0.41,0,0.82-0.01,1.23-0.01
			c0.02,10.67,0.03,21.34,0.05,32.01c-14.74,2.51-29.21,6.06-42.97,12c-8.57,3.7-16.78,8.08-23.27,15.09
			c-6.97,7.53-7.91,16.32-1.77,24.5c2.71,3.61,6.19,6.9,9.95,9.4c17.56,11.7,37.59,16.55,58.02,20.12
			c7.36,1.01,14.71,2.02,22.07,3.03C215.28,400.14,217.56,400.35,219.85,400.56z M100.98,234.6c-0.21-0.03-0.42-0.06-0.64-0.1
			c-1.18,4.18-2.61,8.32-3.39,12.58c-0.26,1.44,0.79,3.5,1.89,4.66c0.64,0.68,3.32,0.66,3.78,0.02c0.99-1.38,1.79-3.48,1.51-5.08
			C103.41,242.59,102.07,238.61,100.98,234.6z"/>
		<path class="st1" d="M208.61,232.69c-5.9-1.01-11.82-1.92-17.69-3.05c-15.36-2.96-30.14-7.53-43.6-15.77
			c-11.32-6.92-20.47-15.98-27.03-27.55c-0.89-1.57-1.8-2.08-3.6-2c-32.82,1.44-65.3,5.2-97.09,13.88c-0.76,0.21-1.63,0.03-2.5-0.54
			c32.82-9.77,66.47-13.77,100.9-15.08c-1.11-2.67-1.97-5.03-3.1-7.26c-0.3-0.58-1.43-1.02-2.19-1.04
			c-31.01-1.18-61.86,0.35-92.43,6.01c-1.28,0.24-2.59,0.26-3.96-0.29c15.86-4.08,32.02-6.07,48.29-6.84
			c16.26-0.77,32.55-0.9,48.73-1.3c-1.24-5.19-2.94-10.77-3.85-16.47c-3.07-19.13-4.47-38.27,1.43-57.19
			c3.39-10.91,8.94-20.62,16.48-29.17c1.45-1.65,1.8-2.89,1.11-5.06c-5.73-18.05-3.9-35.77,2.79-53.17
			c0.36-0.92,2.15-1.75,3.33-1.82c7.39-0.46,14.42,1.41,21.29,3.88c11.82,4.25,22.65,10.41,33.02,17.41
			c1.54,1.04,2.87,1.35,4.79,0.87c32.55-8.18,65.22-8.64,97.97-1.23c2.13,0.48,3.62,0.1,5.36-1.03
			c12.13-7.89,24.7-14.97,38.91-18.37c4.43-1.06,9.1-1.12,13.67-1.57c1.75-0.17,2.71,0.71,3.34,2.44
			c5.86,16.17,7.76,32.57,3.48,49.47c-0.27,1.07,0.24,2.79,1.01,3.62c16.12,17.22,23.69,37.67,23.56,61.16
			c-0.09,15.71-0.9,31.32-4.94,46.92c33.71-1.22,67.08,0.2,100.09,6.69c0.03,0.35,0.05,0.71,0.08,1.06
			c-0.82,0.08-1.66,0.33-2.45,0.22c-8.81-1.26-17.59-2.81-26.43-3.85c-23.76-2.8-47.61-3.4-71.75-2.27
			c-0.45,1.25-0.92,2.56-1.39,3.87c-0.44,1.25-0.87,2.49-1.48,4.23c34.88,1.29,69.18,5.23,102.66,14.59
			c-0.02,0.38-0.03,0.76-0.05,1.13c-0.87,0-1.77,0.16-2.6-0.02c-11.49-2.49-22.91-5.38-34.47-7.48c-21.9-3.97-44.05-5.77-66.38-6.44
			c-11.57,25.96-33.81,37.34-59.68,43.42c-8.84,2.08-17.94,3.04-26.92,4.52c-0.48,0.08-0.94,0.3-1.4,0.46
			c-23.21,0.02-46.43,0.04-69.64,0.05C212.39,232.73,210.5,232.7,208.61,232.69z M142.36,157.72c0.2,4.39,0.08,8.82,0.65,13.16
			c2.31,17.32,10.7,30.67,26.26,39.16c9.64,5.26,20.07,8.07,30.83,9.78c21.64,3.43,43.45,3.25,65.27,2.74
			c13.11-0.31,26.19-1,39.02-4.01c16.43-3.85,30.29-11.38,37.63-27.57c4.87-10.75,6.22-22.17,5.68-33.87
			c-0.18-2.02-0.21-4.07-0.58-6.06c-3.69-19.97-22.42-36.95-42.55-37.44c-13.88-0.34-27.79,0.89-41.7,1.22
			c-11.26,0.27-22.53,0.52-33.78,0.28c-13.09-0.28-26.15-1.36-39.24-1.61c-15.34-0.29-28.12,5.27-37.46,17.85
			C146.55,139.2,142.21,147.6,142.36,157.72z"/>
		<path class="st1" d="M190.96,315.8c-0.02-10.67-0.03-21.34-0.05-32.01c0.2-0.78,0.54-1.55,0.57-2.34
			c0.25-7.62,0.45-15.23,0.66-22.85c2.44-5.54,4.86-11.09,7.34-16.61c0.22-0.5,0.8-0.84,1.21-1.26c2.04-0.62,4.04-1.48,6.13-1.8
			c5.22-0.78,10.47-1.57,15.73-1.89c9.67-0.58,19.36-1.01,29.04-1.11c5.27-0.05,10.57,0.56,15.82,1.15
			c7.38,0.83,14.32,2.98,20.49,7.37c4.82,3.43,7.95,8.13,10.78,13.14c0.21,0.37,0.52,2.25,1.2,0.17c0.5,4.94,1.35,9.88,1.43,14.82
			c0.2,13.08,0.06,26.16,0.08,39.24c0,1.12,0.11,2.23,0.17,3.35c-0.06,2.65-0.09,5.3-0.17,7.95c-0.29,10.37,3.65,18.18,13.37,22.69
			c3.13,1.45,3.92,3.76,2.76,6.66c-2.02,0.5-4.11,1.63-6.03,1.39c-5.79-0.71-11.51-1.95-17.25-2.99
			c-9.46-4.3-14.5-11.58-14.72-22.04c-0.11-5.41-0.11-10.82-0.16-16.23c0.01-10.34,0.39-20.7-0.13-31.02
			c-0.24-4.77-2.13-9.49-3.5-14.16c-0.37-1.26-1.6-2.27-2.94-4.06c0,16.93,0,32.79,0,48.66c-0.03,11.33-0.28,22.66,0.01,33.98
			c0.17,6.48,1.93,12.56,8.38,15.96c2.27,4.57,1.65,6.28-3.06,8.45c-0.78,0.06-1.56,0.11-2.34,0.17
			c-6.77-0.97-12.83-3.65-18.36-7.62c-6.27-5.53-8.48-12.52-8.4-20.79c0.26-26.27,0.19-52.54,0.23-78.8c0-1.19-0.27-2.37-0.42-3.56
			c-1.54-2.63-3.08-2.79-5.12-0.54c-0.16,1.18-0.47,2.36-0.47,3.54c-0.01,26.3-0.1,52.6,0.09,78.89c0.06,8.32-2.13,15.49-8.23,21.29
			c-6.38,4.68-13.34,7.72-21.43,7.58c-0.21-0.02-0.42-0.04-0.64-0.06c-3.67-2.49-3.94-4.2-1.41-8.66c5.4-2.81,8.11-7.31,8.12-13.35
			c0.03-12.14-0.02-24.29-0.03-36.43c0-16.12,0-32.23,0-48.35c-0.22-0.11-0.45-0.23-0.67-0.34c-0.94,1.24-2.2,2.35-2.74,3.74
			c-1.1,2.83-2.46,5.8-2.57,8.75c-0.44,12.26-0.45,24.54-0.62,36.81c-0.03,4.38-0.23,8.77-0.07,13.14
			c0.41,11.54-3.95,20.17-14.76,25.06c-6.95,2.65-14.17,3.38-21.54,3.07c-1.04-1.1-3-2.3-2.9-3.29c0.16-1.53,1.55-3.08,2.75-4.31
			c0.79-0.81,2.17-1.05,3.27-1.58c6.19-3,10.38-7.67,11-14.67C191.29,325.39,190.95,320.58,190.96,315.8z"/>
		<path class="st2" d="M317.52,352.49c1.16-2.9,0.37-5.21-2.76-6.66c-9.73-4.51-13.66-12.33-13.37-22.69
			c0.07-2.65,0.11-5.3,0.17-7.95c19.42,3.26,38.49,7.68,55.97,17.22c5.85,3.19,11.31,6.94,15.39,12.43
			c6.18,8.31,5.64,17.38-1.5,25.08c-6.86,7.4-15.56,11.94-24.65,15.71c-14.12,5.85-28.94,9.3-43.97,11.89
			c-0.39,0.07-0.82-0.02-1.22-0.03c0.01-7.67-0.24-15.35,0.1-23c0.38-8.56,4.3-15.08,12.31-18.89
			C315.34,354.95,316.35,353.55,317.52,352.49z"/>
		<path class="st2" d="M190.96,315.8c0,4.78,0.33,9.59-0.09,14.34c-0.62,7-4.81,11.67-11,14.67c-1.1,0.53-2.47,0.77-3.27,1.58
			c-1.2,1.22-2.59,2.78-2.75,4.31c-0.1,0.99,1.86,2.18,2.9,3.29c0.46,0.38,0.86,0.86,1.38,1.11c8.18,3.93,12.62,10.33,12.76,19.47
			c0.11,7.45,0.03,14.9,0.04,22.34c-20.43-3.57-40.46-8.41-58.02-20.12c-3.75-2.5-7.24-5.8-9.95-9.4
			c-6.14-8.19-5.21-16.97,1.77-24.5c6.49-7.01,14.69-11.39,23.27-15.09C161.75,321.86,176.22,318.31,190.96,315.8z"/>
		<path class="st1" d="M189.67,283.8c-24.59,5.68-49.01,1.25-62.98-23.87c-1.79-3.21-3.63-6.4-5.55-9.54
			c-4.19-6.88-9.78-12.24-17.07-15.87c-2.53-1.26-4.95-2.93-7.01-4.85c-2.4-2.23-1.8-4.41,1.3-5.61c4.94-1.91,9.89-1.14,14.72,0.47
			c9.33,3.11,16.07,9.4,21.52,17.41c2.98,4.37,6,8.9,9.84,12.46c11.93,11.07,25.93,11.71,40.7,6.89c1.94-0.63,3.82-1.44,5.72-2.17
			c-0.22,1.29-0.43,2.57-0.65,3.86c-2.17-0.5-4.15-0.03-4.3,2.39c-0.15,2.28,1.87,2.51,3.72,2.38
			C189.65,273.1,189.66,278.45,189.67,283.8z M149.69,268.38c1.41-1.63,2.17-2.51,2.93-3.38c-1.39-1.16-2.65-2.58-4.23-3.34
			c-0.53-0.26-1.87,1.17-2.85,1.83C146.75,264.92,147.96,266.34,149.69,268.38z M135.8,253.71c0.13,2.79,2.51,5.26,4.29,4.79
			c0.84-0.22,2.09-2.13,1.95-2.31c-1.18-1.48-2.56-2.86-4.11-3.93C137.63,252.05,136.3,253.35,135.8,253.71z M162.14,272.12
			c1.56-1.6,2.49-2.56,3.43-3.52c-1.39-0.95-2.68-2.31-4.21-2.68c-0.83-0.2-2.07,1.29-3.12,2.01
			C159.36,269.13,160.47,270.33,162.14,272.12z M175.96,272.11c1.59-1.47,3.49-2.41,3.58-3.49c0.17-2.1-1.93-2.95-3.68-2.54
			c-1.3,0.3-2.36,1.66-3.53,2.55C173.37,269.64,174.42,270.64,175.96,272.11z M132.19,248.21c0.32-0.48,1.17-1.23,1.31-2.1
			c0.3-1.85-1.89-4.41-3.56-4.1c-0.78,0.14-1.81,1.22-1.96,2.02C127.62,245.94,129.72,248.21,132.19,248.21z M126.86,236.6
			c-2.12-1.37-3.42-2.32-4.84-2.99c-0.21-0.1-1.6,1.6-1.52,1.7c0.97,1.15,2.03,2.3,3.28,3.11
			C124.1,238.62,125.19,237.61,126.86,236.6z M114.66,227.55c-0.82,1.11-1.29,1.74-1.75,2.36c1,0.72,1.94,1.6,3.05,2.07
			c0.29,0.12,1.11-1.01,1.68-1.57C116.78,229.58,115.91,228.75,114.66,227.55z"/>
		<path class="st3" d="M317.52,352.49c-1.17,1.05-2.18,2.45-3.54,3.1c-8,3.81-11.92,10.33-12.31,18.89c-0.34,7.65-0.09,15.33-0.1,23
			c-6.94,0.87-13.87,1.75-20.81,2.62c-0.43-0.99-1.21-1.98-1.22-2.97c-0.1-7.93-0.01-15.86-0.12-23.78
			c-0.01-0.98-0.84-1.94-1.29-2.92c4.7-2.16,5.32-3.87,3.06-8.45c2.64-2.51,5.22-5.11,7.96-7.51c1.55-1.36,3.38-2.4,5.09-3.58
			c5.75,1.04,11.47,2.28,17.25,2.99C313.41,354.12,315.51,353,317.52,352.49z"/>
		<path class="st3" d="M190.93,396.91c0-7.45,0.08-14.9-0.04-22.34c-0.14-9.14-4.59-15.54-12.76-19.47
			c-0.52-0.25-0.92-0.74-1.38-1.11c7.37,0.31,14.59-0.43,21.54-3.07c2.1,1.37,4.34,2.56,6.25,4.16c2.51,2.1,4.74,4.53,7.1,6.82
			c-2.54,4.47-2.26,6.17,1.41,8.66c-0.02,9.8-0.03,19.59-0.05,29.39C205.64,398.92,198.28,397.92,190.93,396.91z"/>
		<path class="st2" d="M235.11,363.03c6.1-5.8,8.29-12.97,8.23-21.29c-0.19-26.3-0.1-52.6-0.09-78.89c0-1.18,0.3-2.36,0.47-3.54
			c0,17.24,0,34.48,0,51.9c1.81-0.17,3.2-0.31,4.98-0.48c0-1.28,0-2.47,0-3.67c0.04-15.74,0.09-31.48,0.13-47.21
			c0.15,1.19,0.42,2.38,0.42,3.56c-0.03,26.27,0.03,52.54-0.23,78.8c-0.08,8.27,2.13,15.26,8.4,20.79c-2.09,4.5-5.3,8.82-6.02,13.53
			c-1.28,8.3-1.04,16.84-1.43,25.28c-5.37-0.15-10.74-0.3-16.11-0.45c2.25-0.02,4.51-0.17,6.75-0.04c2.08,0.13,2.69-0.73,2.57-2.69
			c-0.27-4.38-0.59-8.76-0.58-13.14C242.63,377.12,240.26,369.63,235.11,363.03z"/>
		<path class="st3" d="M249.98,401.8c0.4-8.44,0.16-16.97,1.43-25.28c0.72-4.71,3.93-9.03,6.02-13.53
			c5.53,3.96,11.59,6.65,18.36,7.62c-0.62,2.14-1.63,4.25-1.79,6.43c-0.57,7.88-0.86,15.79-1.25,23.69
			C265.16,401.08,257.57,401.44,249.98,401.8z"/>
		<path class="st3" d="M235.11,363.03c5.14,6.6,7.52,14.1,7.5,22.46c-0.01,4.38,0.31,8.76,0.58,13.14c0.12,1.95-0.49,2.81-2.57,2.69
			c-2.24-0.14-4.5,0.01-6.75,0.04c-4.67-0.26-9.34-0.53-14.02-0.79c-0.01-1.12,0.01-2.25-0.05-3.37c-0.39-7-0.74-13.99-1.23-20.98
			c-0.21-2.98-1.36-5.39-4.89-5.6C221.77,370.75,228.73,367.7,235.11,363.03z"/>
		<path d="M299.88,257.77c-0.68,2.09-0.99,0.2-1.2-0.17c-2.83-5.01-5.96-9.71-10.78-13.14c-6.17-4.39-13.1-6.54-20.49-7.37
			c-5.26-0.59-10.55-1.21-15.82-1.15c-9.68,0.09-19.37,0.53-29.04,1.11c-5.26,0.31-10.51,1.1-15.73,1.89
			c-2.09,0.31-4.09,1.18-6.13,1.8c2.64-2.68,5.28-5.36,7.92-8.04c1.89,0.01,3.78,0.04,5.67,0.04c23.21-0.02,46.43-0.04,69.64-0.05
			C292.39,239.04,297.9,247.28,299.88,257.77z"/>
		<path class="st2" d="M272.75,400.73c0.39-7.9,0.68-15.8,1.25-23.69c0.16-2.18,1.17-4.29,1.79-6.43c0.78-0.06,1.56-0.11,2.34-0.17
			c0.45,0.97,1.28,1.94,1.29,2.92c0.11,7.93,0.02,15.85,0.12,23.78c0.01,1,0.8,1.98,1.22,2.97
			C278.09,400.31,275.42,400.52,272.75,400.73z"/>
		<path class="st2" d="M213.68,370.6c3.53,0.21,4.68,2.62,4.89,5.6c0.49,6.99,0.84,13.99,1.23,20.98c0.06,1.12,0.03,2.25,0.05,3.37
			c-2.28-0.21-4.57-0.42-6.85-0.62c0.02-9.8,0.03-19.59,0.05-29.39C213.26,370.56,213.47,370.58,213.68,370.6z"/>
		<path class="st4" d="M100.98,234.6c1.09,4.02,2.44,7.99,3.15,12.08c0.28,1.6-0.52,3.7-1.51,5.08c-0.46,0.64-3.13,0.66-3.78-0.02
			c-1.1-1.16-2.15-3.22-1.89-4.66c0.78-4.26,2.21-8.39,3.39-12.58C100.55,234.53,100.76,234.56,100.98,234.6z"/>
		<path class="st5" d="M189.67,283.8c-0.01-5.35-0.02-10.69-0.02-16.04c0.19-1.59,0.39-3.18,0.58-4.77
			c0.22-1.29,0.43-2.57,0.65-3.86c0.42-0.18,0.84-0.36,1.26-0.53c-0.21,7.62-0.41,15.24-0.66,22.85c-0.03,0.78-0.37,1.56-0.57,2.34
			C190.49,283.79,190.08,283.79,189.67,283.8z"/>
		<path class="st6" d="M347.69,157.1c0.54,11.7-0.81,23.12-5.68,33.87c-7.34,16.19-21.2,23.72-37.63,27.57
			c-12.83,3.01-25.9,3.7-39.02,4.01c-21.82,0.51-43.62,0.69-65.27-2.74c-10.75-1.71-21.18-4.52-30.83-9.78
			c-15.57-8.48-23.96-21.83-26.26-39.16c-0.58-4.34-0.45-8.77-0.65-13.16c1.53-8.04,4.71-15.35,9.66-21.88
			c6.62-8.72,14.66-15.1,25.89-17.06c11.03-1.92,22-0.89,32.99-0.3c10.37,0.56,20.72,1.93,31.09,2.16
			c9.06,0.2,18.15-0.61,27.22-1.13c5.39-0.31,10.76-1.26,16.14-1.31c8.96-0.09,17.99-0.35,26.86,0.67
			c12.46,1.44,20.83,9.6,27.69,19.46C343.86,144.02,346.07,150.44,347.69,157.1z M325.69,163.53c-0.19-9.03-1.77-16.96-6.92-23.77
			c-8.18-10.82-19.83-10.85-27.87-1.59c-10.58,12.18-10.51,34.75-0.86,47.46c6.95,9.16,18.13,10.13,26.27,2.06
			C323.23,180.82,325.26,172.15,325.69,163.53z M210.65,162.15c0.39-9.76-2.72-17.98-7.74-23.84c-6.8-7.93-16.64-9.42-25-1.87
			c-12.15,10.98-12.96,35.82-2.94,48.63c8.74,11.17,20.59,11,29.16-0.34C209.08,178.2,210.79,170.62,210.65,162.15z M245.41,211.97
			c5.29-0.02,10.12-3.04,11.86-7.69c0.32-0.84-0.37-2.06-0.59-3.11c-0.79,0.44-2.04,0.7-2.31,1.36c-3.34,7.98-14.33,8.35-18.09,0.1
			c-0.31-0.69-1.66-0.91-2.52-1.35c-0.18,0.98-0.75,2.1-0.46,2.91C235.05,208.94,239.95,212,245.41,211.97z M245.28,184.31
			c-2.89,0.04-5.28,2.64-5.21,5.66c0.06,2.76,2.6,5.23,5.33,5.2c2.75-0.04,5.2-2.54,5.21-5.32
			C250.62,186.83,248.15,184.27,245.28,184.31z"/>
		<path class="st7" d="M347.69,157.1c-1.62-6.66-3.83-13.08-7.8-18.77c-6.87-9.86-15.23-18.02-27.69-19.46
			c-8.86-1.02-17.9-0.76-26.86-0.67c-5.38,0.05-10.75,1-16.14,1.31c-9.07,0.52-18.16,1.33-27.22,1.13
			c-10.37-0.23-20.72-1.6-31.09-2.16c-10.99-0.59-21.96-1.62-32.99,0.3c-11.23,1.95-19.27,8.33-25.89,17.06
			c-4.95,6.52-8.13,13.84-9.66,21.88c-0.15-10.12,4.2-18.51,10.03-26.37c9.34-12.58,22.12-18.15,37.46-17.85
			c13.09,0.25,26.15,1.33,39.24,1.61c11.25,0.24,22.52-0.01,33.78-0.28c13.9-0.33,27.82-1.56,41.7-1.22
			c20.13,0.49,38.87,17.47,42.55,37.44C347.48,153.03,347.51,155.08,347.69,157.1z"/>
		<path class="st2" d="M211.64,361.88c-2.35-2.29-4.59-4.71-7.1-6.82c-1.91-1.6-4.15-2.79-6.25-4.16
			c10.81-4.89,15.17-13.52,14.76-25.06c-0.16-4.37,0.04-8.76,0.07-13.14c2.2-0.2,4.4-0.4,6.61-0.6c0.02,12.14,0.07,24.29,0.03,36.43
			C219.75,354.57,217.04,359.07,211.64,361.88z"/>
		<path class="st2" d="M294.24,350.9c-1.71,1.18-3.54,2.22-5.09,3.58c-2.74,2.4-5.32,5-7.96,7.51c-6.45-3.4-8.21-9.48-8.38-15.96
			c-0.29-11.32-0.04-22.65-0.01-33.98c2.19,0.19,4.38,0.39,6.57,0.58c0.05,5.41,0.05,10.82,0.16,16.23
			C279.73,339.32,284.77,346.59,294.24,350.9z"/>
		<path class="st0" d="M219.73,312.1c-2.2,0.2-4.4,0.4-6.61,0.6c0.17-12.27,0.18-24.55,0.62-36.81c0.11-2.95,1.47-5.91,2.57-8.75
			c0.54-1.39,1.8-2.5,2.74-3.74c0.22,0.11,0.45,0.23,0.67,0.34C219.73,279.87,219.73,295.98,219.73,312.1z"/>
		<path class="st0" d="M279.36,312.63c-2.19-0.19-4.38-0.39-6.57-0.58c0-15.87,0-31.73,0-48.66c1.34,1.79,2.57,2.8,2.94,4.06
			c1.38,4.67,3.26,9.39,3.5,14.16C279.76,291.92,279.38,302.29,279.36,312.63z"/>
		<path class="st8" d="M248.84,259.84c-0.05,15.74-0.09,31.48-0.13,47.21c0,1.2,0,2.4,0,3.67c-1.78,0.17-3.17,0.3-4.98,0.48
			c0-17.42,0-34.66,0-51.9C245.76,257.05,247.3,257.21,248.84,259.84z"/>
		<path class="st9" d="M149.69,268.38c-1.73-2.04-2.94-3.47-4.15-4.89c0.97-0.66,2.31-2.09,2.85-1.83c1.58,0.76,2.84,2.18,4.23,3.34
			C151.86,265.88,151.1,266.75,149.69,268.38z"/>
		<path class="st10" d="M135.8,253.71c0.5-0.36,1.84-1.66,2.13-1.45c1.55,1.07,2.93,2.45,4.11,3.93c0.14,0.18-1.11,2.09-1.95,2.31
			C138.31,258.97,135.92,256.5,135.8,253.71z"/>
		<path class="st11" d="M162.14,272.12c-1.67-1.8-2.79-2.99-3.9-4.19c1.05-0.73,2.29-2.21,3.12-2.01c1.53,0.37,2.82,1.73,4.21,2.68
			C164.64,269.56,163.7,270.52,162.14,272.12z"/>
		<path class="st11" d="M175.96,272.11c-1.53-1.47-2.58-2.47-3.63-3.48c1.17-0.89,2.23-2.25,3.53-2.55c1.75-0.4,3.85,0.44,3.68,2.54
			C179.45,269.7,177.55,270.64,175.96,272.11z"/>
		<path class="st12" d="M132.19,248.21c-2.47,0-4.57-2.27-4.21-4.18c0.15-0.8,1.19-1.88,1.96-2.02c1.67-0.3,3.86,2.26,3.56,4.1
			C133.36,246.98,132.51,247.73,132.19,248.21z"/>
		<path class="st13" d="M126.86,236.6c-1.66,1.01-2.76,2.02-3.08,1.81c-1.25-0.81-2.31-1.96-3.28-3.11c-0.08-0.09,1.31-1.8,1.52-1.7
			C123.44,234.28,124.73,235.23,126.86,236.6z"/>
		<path class="st14" d="M190.23,262.99c-0.19,1.59-0.39,3.18-0.58,4.77c-1.85,0.13-3.87-0.1-3.72-2.38
			C186.08,262.96,188.06,262.49,190.23,262.99z"/>
		<path class="st15" d="M114.66,227.55c1.24,1.19,2.11,2.03,2.98,2.86c-0.58,0.56-1.4,1.69-1.68,1.57
			c-1.11-0.47-2.05-1.34-3.05-2.07C113.38,229.29,113.84,228.67,114.66,227.55z"/>
		<path class="st0" d="M325.69,163.53c-0.43,8.62-2.46,17.29-9.39,24.16c-8.14,8.07-19.32,7.09-26.27-2.06
			c-9.65-12.71-9.71-35.28,0.86-47.46c8.04-9.26,19.7-9.23,27.87,1.59C323.92,146.57,325.5,154.5,325.69,163.53z M316.38,162.99
			c-0.11-5.42-1.23-10.55-4.43-15.04c-5.44-7.62-14.09-7.68-19.69-0.16c-5.96,8-5.92,21.99,0.1,30.02c5.52,7.37,14.08,7.35,19.5-0.1
			C315.03,173.34,316.2,168.31,316.38,162.99z"/>
		<path class="st0" d="M210.65,162.15c0.14,8.47-1.57,16.06-6.51,22.59c-8.58,11.33-20.43,11.5-29.16,0.34
			c-10.03-12.81-9.22-37.65,2.94-48.63c8.36-7.55,18.2-6.06,25,1.87C207.93,144.17,211.04,152.39,210.65,162.15z M177.21,162.72
			c-0.01,5.78,1.31,11.15,5.03,15.73c5.2,6.41,12.7,6.51,18.15,0.29c7.19-8.2,7.02-24.38-0.35-32.4
			c-5.06-5.51-12.08-5.58-17.16-0.02C178.66,150.93,177.22,156.6,177.21,162.72z"/>
		<path class="st16" d="M245.41,211.97c-5.46,0.02-10.36-3.03-12.1-7.78c-0.3-0.8,0.28-1.93,0.46-2.91
			c0.87,0.44,2.21,0.66,2.52,1.35c3.75,8.25,14.75,7.88,18.09-0.1c0.28-0.66,1.52-0.92,2.31-1.36c0.22,1.05,0.91,2.26,0.59,3.11
			C255.53,208.93,250.7,211.95,245.41,211.97z"/>
		<path class="st16" d="M245.28,184.31c2.88-0.04,5.34,2.52,5.33,5.54c-0.01,2.78-2.46,5.28-5.21,5.32
			c-2.73,0.04-5.27-2.43-5.33-5.2C240,186.95,242.38,184.36,245.28,184.31z"/>
		<path class="st17" d="M316.38,162.99c-0.18,5.32-1.35,10.35-4.53,14.72c-5.42,7.44-13.98,7.46-19.5,0.1
			c-6.02-8.03-6.06-22.02-0.1-30.02c5.6-7.52,14.26-7.46,19.69,0.16C315.15,152.44,316.27,157.57,316.38,162.99z M301.27,152.34
			c-0.93-0.65-2.2-2.21-3.64-2.38c-2.16-0.26-3.61,1.31-3.53,3.67c0.07,2.18,1.35,3.45,3.52,3.46
			C299.97,157.08,301.09,155.64,301.27,152.34z"/>
		<path class="st17" d="M177.21,162.72c0.01-6.12,1.45-11.78,5.67-16.4c5.08-5.55,12.1-5.49,17.16,0.02
			c7.37,8.02,7.54,24.2,0.35,32.4c-5.45,6.22-12.95,6.12-18.15-0.29C178.52,173.87,177.2,168.5,177.21,162.72z M189.49,153.41
			c-0.07-2.28-1.88-3.97-4.21-3.92c-2.32,0.05-4.08,1.85-4.01,4.11c0.07,2.2,2.03,4.07,4.2,4.01
			C187.65,157.56,189.55,155.56,189.49,153.41z"/>
		<path class="st18" d="M301.27,152.34c-0.19,3.3-1.3,4.75-3.66,4.74c-2.17,0-3.44-1.28-3.52-3.46c-0.08-2.36,1.37-3.94,3.53-3.67
			C299.07,150.13,300.35,151.69,301.27,152.34z"/>
		<path class="st19" d="M189.49,153.41c0.07,2.15-1.84,4.15-4.01,4.21c-2.17,0.06-4.13-1.81-4.2-4.01
			c-0.07-2.26,1.68-4.06,4.01-4.11C187.61,149.45,189.42,151.13,189.49,153.41z"/>
	</g>
</g>
</svg>
