<?xml version="1.0" encoding="utf-8"?>
<!-- Generator: Adobe Illustrator 23.0.1, SVG Export Plug-In . SVG Version: 6.00 Build 0)  -->
<svg version="1.1" id="Layer_1" xmlns="http://www.w3.org/2000/svg" xmlns:xlink="http://www.w3.org/1999/xlink" x="0px" y="0px"
	 viewBox="0 0 362.73 512" style="enable-background:new 0 0 362.73 512;" xml:space="preserve">
<style type="text/css">
	.st0{fill:#E44D26;}
	.st1{fill:#F16529;}
	.st2{fill:#EBEBEB;}
	.st3{fill:#FFFFFF;}
</style>
<title>HTML5 Logo</title>
<polygon class="st0" points="33.01,470.88 0,100.62 362.73,100.62 329.69,470.82 181.14,512 "/>
<polygon class="st1" points="181.37,480.52 301.4,447.25 329.64,130.89 181.37,130.89 "/>
<polygon class="st2" points="181.37,268.22 121.28,268.22 117.13,221.72 181.37,221.72 181.37,176.3 181.21,176.3 67.5,176.3 
	68.59,188.49 79.75,313.63 181.37,313.63 "/>
<polygon class="st2" points="181.37,386.15 181.17,386.21 130.59,372.55 127.36,336.33 102.79,336.33 81.78,336.33 88.14,407.63 
	181.16,433.46 181.37,433.4 "/>
<path d="M33.75,0h23.08v22.8h21.11V0h23.08v69.04H77.94V45.92H56.83v23.12H33.75L33.75,0L33.75,0z"/>
<path d="M131.36,22.9h-20.32V0h63.72v22.9h-20.33v46.15h-23.08L131.36,22.9L131.36,22.9z"/>
<path d="M184.88,0h24.06l14.8,24.26L238.53,0h24.07v69.04h-22.98V34.82l-15.88,24.55h-0.4l-15.89-24.55v34.22h-22.58V0z"/>
<path d="M274.09,0h23.08v46.22h32.45v22.82h-55.54V0z"/>
<polygon class="st3" points="181.21,268.22 181.21,313.63 237.13,313.63 231.86,372.52 181.21,386.19 181.21,433.43 274.3,407.63 
	274.99,399.96 285.66,280.41 286.77,268.22 274.53,268.22 "/>
<polygon class="st3" points="181.21,176.3 181.21,204.51 181.21,221.6 181.21,221.72 290.75,221.72 290.75,221.72 290.9,221.72 
	291.81,211.51 293.88,188.49 294.96,176.3 "/>
</svg>
