<?xml version="1.0" encoding="utf-8"?>
<!-- Generator: Adobe Illustrator 23.0.1, SVG Export Plug-In . SVG Version: 6.00 Build 0)  -->
<svg version="1.1" id="Layer_1" xmlns="http://www.w3.org/2000/svg" xmlns:xlink="http://www.w3.org/1999/xlink" x="0px" y="0px"
	 viewBox="0 0 419.57 450.34" style="enable-background:new 0 0 419.57 450.34;" xml:space="preserve">
<style type="text/css">
	.st0{fill:#131B28;}
	.st1{fill:#0868AC;}
</style>
<path class="st0" d="M119.88,368.26L119.88,368.26l-3.35,11.88L119.88,368.26L119.88,368.26z"/>
<path class="st0" d="M137.12,394.05l-3.69-0.02L137.12,394.05z"/>
<path class="st0" d="M136.17,411.79L136.17,411.79l-22.13,0.08L136.17,411.79L136.17,411.79z"/>
<path class="st0" d="M140.81,394.07l-3.7-0.02L140.81,394.07z"/>
<path class="st0" d="M138.11,410.28l3.85-14.7L138.11,410.28L138.11,410.28L138.11,410.28z"/>
<path class="st0" d="M219.59,342.58l-7.18,33.76C212.41,376.34,219.59,342.58,219.59,342.58z"/>
<path class="st0" d="M201.13,342.58l-5.45,25.22L201.13,342.58L201.13,342.58z"/>
<path class="st0" d="M218.36,341.06h-15.36c-0.85,0-1.7,0.68-1.88,1.52l-5.45,25.22l-5.45,25.22c-0.18,0.83-1.03,1.51-1.88,1.51
	h-9.32h-1.55c-10.75,0-9.51-7.44-7.31-17.63c0.02-0.1,0.04-0.2,0.07-0.31l0.24-1.28c0.01-0.08,0.03-0.17,0.05-0.24l0.49-2.61
	l0.53-2.8c0.16-0.84,0.4-2.08,0.56-2.86l2.48-12.11l2.48-12.11c0.17-0.83-0.39-1.52-1.24-1.52h-15.76c-0.85,0-1.7,0.69-1.87,1.52
	l-3.39,16.08l-3.39,16.08c0,0.01,0,0.02-0.01,0.02l-0.31,1.49c-3.9,17.82-2.87,34.82,18.35,35.35c0.35,0.01,0.62,0.01,0.62,0.01
	h33.3c0.85,0,1.7-0.68,1.87-1.52l7.18-33.76l7.18-33.76C219.77,341.74,219.22,341.06,218.36,341.06L218.36,341.06z"/>
<path class="st0" d="M279.62,394.71c0.85,0,1.41,0.68,1.24,1.52l-1.49,7.29"/>
<path class="st0" d="M277.88,410.8l1.49-7.29L277.88,410.8C277.88,410.81,277.88,410.81,277.88,410.8L277.88,410.8z"/>
<path class="st0" d="M276.01,412.34C276.02,412.34,276.02,412.34,276.01,412.34c-4.51,0.03-18.09,0.14-28.3,0.14
	C260.14,412.48,276.01,412.34,276.01,412.34L276.01,412.34z"/>
<path class="st0" d="M238.55,385.32c-0.01-0.8,0.9-2.17,1.75-2.17l-1.92-0.03C237.52,391.81,238.55,385.32,238.55,385.32
	L238.55,385.32z"/>
<path class="st0" d="M249.11,412.47c-0.1,0-0.2,0-0.3,0C248.92,412.47,249.02,412.47,249.11,412.47z"/>
<path class="st0" d="M279.62,394.71c0.85,0,1.41,0.68,1.24,1.52l-1.49,7.29l-0.24,1.19"/>
<path class="st0" d="M256.38,412.46h-0.06H256.38z"/>
<path class="st0" d="M252.61,412.47h-0.22H252.61z"/>
<path class="st0" d="M251.46,412.47c-0.12,0-0.24,0-0.36,0C251.22,412.47,251.34,412.47,251.46,412.47z"/>
<path class="st0" d="M250.29,412.47h-0.32H250.29z"/>
<path class="st0" d="M252.39,412.47c-0.31,0-0.62,0-0.93,0C251.77,412.47,252.08,412.47,252.39,412.47z"/>
<path class="st0" d="M256.32,412.46c-1.24,0.01-2.48,0.01-3.7,0.01C253.84,412.47,255.08,412.46,256.32,412.46z"/>
<path class="st0" d="M276.02,412.34L276.02,412.34c-3.31,0.03-11.49,0.09-19.64,0.12C264.53,412.43,272.71,412.36,276.02,412.34z"/>
<path class="st0" d="M277.88,410.81l1.25-6.11L277.88,410.81C277.88,410.81,277.88,410.81,277.88,410.81L277.88,410.81z"/>
<path class="st0" d="M251.1,412.47h-0.81H251.1z"/>
<path class="st0" d="M248.81,412.47h-1.1H248.81z"/>
<path class="st0" d="M249.97,412.47h-0.86H249.97z"/>
<path class="st0" d="M25.34,385.5l2.39-10.57L25,387.02l-2.62,12.31l2.29-10.79C24.86,387.7,25.16,386.34,25.34,385.5L25.34,385.5z"
	/>
<path class="st0" d="M53.89,340.88H37.03c-0.85,0-1.7,0.68-1.89,1.51l-1.6,7.06l-1.6,7.06c-0.19,0.83,0.36,1.51,1.21,1.51h16.99
	c0.85,0,1.7-0.68,1.88-1.51l1.55-7.06l1.55-7.05v0C55.3,341.56,54.75,340.88,53.89,340.88L53.89,340.88z"/>
<path class="st0" d="M50.22,364.36L50.22,364.36l-4.95,22.88L50.22,364.36z"/>
<path class="st0" d="M1.23,440.18c0,0,8.5,0.11,13.9,0.11C11.03,440.29,4.25,440.21,1.23,440.18
	C1.23,440.17,1.23,440.18,1.23,440.18L1.23,440.18z"/>
<path class="st0" d="M30.11,364.35l-2.39,10.57L30.11,364.35z"/>
<path class="st0" d="M49,362.84h-17c-0.85,0-1.7,0.68-1.89,1.51l-2.39,10.57l-2.39,10.57c-0.19,0.83-0.49,2.2-0.67,3.03l-2.29,10.79
	l-2.29,10.79c-0.18,0.83-0.54,2.18-0.82,2.99c0,0-3.18,9.45-8.51,9.34c-0.23,0-0.45-0.01-0.67-0.01c-2.59-0.05-4.62-0.09-4.62-0.09
	h0c-0.85-0.01-1.71,0.65-1.91,1.48l-1.76,7.41l-1.76,7.41c-0.2,0.83,0.34,1.51,1.18,1.53c3.03,0.04,9.81,0.11,13.91,0.11
	c13.33,0,20.36-7.39,24.87-28.65l5.27-24.4l4.95-22.88C50.41,363.52,49.85,362.84,49,362.84L49,362.84z"/>
<path class="st0" d="M290.45,411.61c-0.85,0-1.4-0.68-1.23-1.52l12.79-59.89"/>
<path class="st0" d="M308.22,410.09l5.17-25.56L308.22,410.09z"/>
<path class="st0" d="M289.41,410.85c-0.1-0.42-0.04-1.44,0.14-2.28l6.07-28.43l-6.39,29.94c-0.18,0.83,0.37,1.52,1.23,1.52h1.55
	C291.15,411.61,289.52,411.27,289.41,410.85L289.41,410.85z"/>
<path class="st0" d="M307.21,411.27c-0.46,0.19-1.54,0.34-2.4,0.34h1.55c0.85,0,1.69-0.68,1.86-1.52l0.31-1.52
	C308.37,409.41,307.68,411.08,307.21,411.27L307.21,411.27z"/>
<path class="st0" d="M310.81,397.31l2.28-11.28c0,0.01,0,0.02,0,0.02L310.81,397.31L310.81,397.31z"/>
<path class="st0" d="M361.26,354.21l0.7,2.91c0.19,0.83-0.34,1.51-1.2,1.51"/>
<path class="st0" d="M308.53,408.57l2.28-11.26L308.53,408.57z"/>
<path class="st0" d="M360.56,351.23l0.7,2.98L360.56,351.23z"/>
<path class="st0" d="M313.09,386.03c0.17-0.83,0.45-2.19,0.63-3.02l2.44-11.42l-2.76,12.94L313.09,386.03L313.09,386.03z"/>
<path class="st0" d="M302.22,349.22c-0.17,0.81-0.39,1.82-0.53,2.5l-6.07,28.43l6.39-29.95L302.22,349.22L302.22,349.22z"/>
<path class="st0" d="M361.96,357.12l-0.7-2.91l-0.7-2.98l-0.35-1.51c-1.38-5.36-5.43-8.46-14.23-8.46l-13.7-0.01l-12.62-0.01h-1.08
	h-13.11c-0.85,0-1.7,0.68-1.87,1.52h0l-0.63,2.97l-0.74,3.5l-0.21,0.98l-6.39,29.95l-6.07,28.43c-0.18,0.83-0.24,1.86-0.14,2.28
	c0.1,0.42,1.74,0.76,2.59,0.76h12.81c0.85,0,1.93-0.15,2.4-0.34c0.47-0.19,1.15-1.86,1.32-2.7l2.28-11.26l2.28-11.26
	c0-0.01,0-0.01,0-0.02l0.3-1.5l2.76-12.94l2.44-11.43c0.18-0.83,1.02-1.51,1.87-1.51l40.3-0.02
	C361.62,358.63,362.16,357.96,361.96,357.12L361.96,357.12z"/>
<path class="st0" d="M413.84,330.81c-0.85,0.01-2.25,0.01-3.1,0.01h-12.9c-0.85,0-1.95,0.58-2.43,1.28l-28.52,41.79
	c-0.48,0.71-1.03,0.6-1.22-0.23l-2.1-9.21c-0.19-0.83-1.04-1.51-1.9-1.51h-18.34c-0.85,0-1.36,0.67-1.13,1.49l8.22,28.78
	c0.23,0.82,0.25,2.17,0.04,2.99l-3.58,13.93c-0.21,0.83,0.31,1.5,1.17,1.5h18.12c0.85,0,1.72-0.68,1.93-1.5l3.58-13.93
	c0.21-0.83,0.8-2.06,1.32-2.74l46.31-61.46c0.51-0.68,0.24-1.24-0.62-1.23L413.84,330.81L413.84,330.81z"/>
<path class="st0" d="M268.16,366.86l0-0.02c-0.11,0.93-0.96,1.6-1.81,1.6H243.1c-0.8,0-1.21-0.55-1.09-1.22
	c0.01-0.02,0.01-0.04,0.02-0.05c0,0-0.01,0-0.01,0.01c0.01-0.03,0.01-0.05,0.01-0.08c0,0,0.04-0.16,0.11-0.4
	c2.22-5.9,6.74-9.78,15.24-9.78C266.95,356.93,268.81,361.6,268.16,366.86L268.16,366.86z M261.34,340.03
	c-29.84,0-36.91,18.11-40.88,36.39c-3.97,18.63-3.63,36.06,27.25,36.06h1.1c0.1,0,0.2,0,0.3,0h0.86h0.32h0.81c0.12,0,0.24,0,0.36,0
	c0.31,0,0.62,0,0.93,0h0.22c1.22,0,2.46-0.01,3.7-0.01h0.06c8.16-0.03,16.33-0.09,19.65-0.12c0.85-0.01,1.68-0.7,1.85-1.52
	l1.25-6.11l0.24-1.19l1.49-7.29c0.17-0.83-0.39-1.52-1.24-1.52h-27.76c-11.04,0-14.32-2.93-13.11-11.56h44.38l0,0
	c0.01,0,0.02,0,0.03,0c0.71-0.01,1.36-0.5,1.62-1.15c0.05-0.12,0.09-0.25,0.11-0.39l-0.01,0.01
	C291.46,356.77,289.57,340.03,261.34,340.03L261.34,340.03z"/>
<path class="st0" d="M120.3,366.76l-0.42,1.49c0,0.01,0,0.01,0,0.01l-3.35,11.88L113.18,392c-0.23,0.82-1.12,1.49-1.97,1.49H93.47
	c-13.45,0-16.73-10.52-13.45-26.04c3.28-15.87,9.7-25.74,22.94-26.74C121.05,339.35,124.67,352.08,120.3,366.76L120.3,366.76z
	 M132.47,392.58c0,0,8.36-20.3,10.26-32.03c2.59-15.7-5.27-38.47-35.63-38.47c-30.19,0-43.29,21.74-48.3,45.37
	c-5,23.8,1.55,44.67,31.57,44.5l23.68-0.09l22.13-0.08c0.85-0.01,1.72-0.68,1.94-1.51l3.85-14.71c0.21-0.83-0.31-1.5-1.16-1.51
	l-3.7-0.02l-3.69-0.02c-0.73-0.01-1.14-0.47-1.05-1.1C132.39,392.82,132.42,392.7,132.47,392.58L132.47,392.58z"/>
<path class="st0" d="M281.9,378.99c0,0.56-0.46,1.02-1.02,1.02c-0.56,0-1.02-0.46-1.02-1.02c0-0.56,0.46-1.02,1.02-1.02
	C281.45,377.98,281.9,378.43,281.9,378.99z"/>
<path class="st1" d="M77.62,72.48c-28.36,40.76-24.83,93.8-3.17,137.11c0.52,1.04,1.06,2.06,1.59,3.08
	c0.34,0.65,0.66,1.31,1.01,1.95c0.2,0.38,0.42,0.76,0.63,1.12c0.37,0.69,0.75,1.35,1.13,2.02c0.67,1.19,1.36,2.37,2.07,3.55
	c0.39,0.65,0.78,1.3,1.18,1.94c0.78,1.26,1.58,2.51,2.4,3.75c0.34,0.53,0.67,1.06,1.02,1.58c1.13,1.69,2.28,3.36,3.48,5.02
	c0.03,0.04,0.06,0.09,0.1,0.13c0.19,0.27,0.39,0.52,0.59,0.79c1.03,1.42,2.09,2.82,3.17,4.21c0.39,0.51,0.79,1.01,1.19,1.52
	c0.96,1.2,1.94,2.4,2.93,3.6c0.37,0.45,0.74,0.9,1.12,1.34c1.33,1.57,2.69,3.13,4.08,4.66c0.03,0.02,0.06,0.06,0.08,0.08
	c0.06,0.07,0.11,0.11,0.16,0.17c1.35,1.48,2.74,2.92,4.15,4.37c0.44,0.45,0.88,0.9,1.33,1.34c1.09,1.1,2.19,2.18,3.31,3.25
	c0.45,0.43,0.9,0.87,1.35,1.29c1.49,1.4,3,2.78,4.54,4.13c0.03,0.02,0.05,0.04,0.07,0.06c0.26,0.23,0.53,0.45,0.79,0.67
	c1.35,1.17,2.73,2.33,4.12,3.48c0.56,0.46,1.14,0.91,1.71,1.36c1.13,0.91,2.28,1.8,3.43,2.68c0.61,0.47,1.22,0.93,1.84,1.4
	c1.28,0.94,2.56,1.86,3.85,2.77c0.47,0.34,0.93,0.67,1.4,1c0.13,0.09,0.25,0.18,0.39,0.27c1.23,0.85,2.49,1.66,3.74,2.48
	c0.54,0.36,1.08,0.73,1.62,1.08c1.93,1.22,3.88,2.43,5.86,3.59c0.54,0.31,1.08,0.61,1.62,0.91c1.45,0.84,2.92,1.66,4.4,2.47
	c0.8,0.43,1.62,0.84,2.43,1.25c1.05,0.55,2.09,1.1,3.15,1.64c0.24,0.12,0.49,0.23,0.73,0.35c0.43,0.21,0.86,0.41,1.29,0.62
	c1.65,0.79,3.31,1.56,4.99,2.31c0.36,0.16,0.7,0.32,1.06,0.47c1.92,0.84,3.86,1.64,5.82,2.42c0.47,0.19,0.94,0.37,1.42,0.56
	c1.81,0.7,3.65,1.39,5.49,2.04c0.23,0.08,0.46,0.16,0.69,0.24c2.02,0.71,4.07,1.36,6.12,2c0.49,0.14,0.98,0.3,1.48,0.44
	c2.09,0.63,4.16,1.39,6.32,1.79c137.16,25.01,177-82.42,177-82.42c-33.46,43.59-92.86,55.09-149.13,42.29
	c-2.13-0.48-4.2-1.15-6.28-1.76c-0.53-0.16-1.05-0.32-1.57-0.47c-2.03-0.62-4.05-1.28-6.05-1.97c-0.27-0.1-0.55-0.2-0.83-0.3
	c-1.79-0.63-3.57-1.3-5.33-1.98c-0.5-0.2-1-0.39-1.5-0.59c-1.94-0.76-3.86-1.56-5.76-2.39c-0.39-0.17-0.76-0.34-1.15-0.51
	c-1.63-0.74-3.25-1.49-4.86-2.26c-0.47-0.22-0.93-0.44-1.4-0.67c-1.26-0.62-2.51-1.27-3.76-1.91c-0.83-0.44-1.68-0.85-2.51-1.31
	c-1.52-0.81-3.01-1.66-4.5-2.52c-0.5-0.28-1.01-0.55-1.52-0.85c-1.98-1.16-3.93-2.37-5.86-3.59c-0.53-0.34-1.05-0.7-1.58-1.05
	c-1.4-0.91-2.8-1.83-4.17-2.77c-0.46-0.31-0.89-0.64-1.34-0.95c-1.33-0.94-2.64-1.89-3.94-2.85c-0.59-0.44-1.17-0.88-1.75-1.32
	c-1.19-0.92-2.38-1.84-3.56-2.78c-0.53-0.42-1.06-0.85-1.59-1.27c-1.5-1.23-2.97-2.47-4.43-3.74c-0.15-0.13-0.32-0.27-0.49-0.41
	c-1.58-1.39-3.13-2.81-4.66-4.24c-0.44-0.42-0.88-0.84-1.31-1.26c-1.13-1.08-2.25-2.17-3.35-3.28c-0.44-0.44-0.88-0.87-1.31-1.31
	c-1.4-1.43-2.77-2.87-4.11-4.34c-0.07-0.07-0.14-0.14-0.2-0.22c-1.42-1.55-2.81-3.14-4.17-4.74c-0.37-0.44-0.73-0.86-1.09-1.3
	c-1.01-1.22-2.02-2.46-3-3.71c-0.37-0.45-0.73-0.91-1.1-1.37c-1.18-1.53-2.33-3.06-3.46-4.61C86.01,151.45,74.79,92.67,99.76,44.4"
	/>
<path class="st1" d="M165.66,38.14c-20.51,29.52-19.4,69.03-3.4,100.24c2.68,5.23,5.7,10.31,9.07,15.14
	c3.07,4.4,6.48,9.64,10.56,13.18c1.48,1.63,3.02,3.21,4.6,4.78c0.4,0.41,0.81,0.8,1.21,1.2c1.53,1.49,3.09,2.95,4.7,4.37
	c0.07,0.05,0.12,0.12,0.19,0.17c0.02,0.02,0.03,0.02,0.05,0.04c1.78,1.56,3.62,3.07,5.49,4.54c0.42,0.32,0.83,0.65,1.25,0.97
	c1.87,1.44,3.78,2.85,5.74,4.2c0.06,0.04,0.11,0.08,0.17,0.12c0.86,0.6,1.74,1.15,2.62,1.73c0.42,0.27,0.82,0.56,1.24,0.82
	c1.4,0.9,2.82,1.77,4.26,2.61c0.2,0.12,0.4,0.23,0.6,0.35c1.24,0.71,2.5,1.42,3.76,2.1c0.44,0.25,0.89,0.47,1.34,0.7
	c0.87,0.46,1.74,0.92,2.63,1.36c0.13,0.07,0.27,0.12,0.4,0.18c1.81,0.89,3.63,1.74,5.49,2.56c0.4,0.17,0.81,0.33,1.21,0.5
	c1.49,0.63,2.99,1.25,4.5,1.83c0.64,0.24,1.29,0.47,1.93,0.71c1.37,0.51,2.75,0.97,4.13,1.44c0.63,0.2,1.24,0.41,1.87,0.6
	c1.97,0.61,3.92,1.39,5.98,1.73c105.9,17.54,130.35-63.99,130.35-63.99c-22.04,31.74-64.72,46.88-110.26,35.06
	c-2.02-0.53-4.02-1.11-6-1.74c-0.61-0.18-1.2-0.38-1.8-0.58c-1.41-0.46-2.81-0.94-4.2-1.45c-0.64-0.23-1.27-0.47-1.89-0.71
	c-1.52-0.58-3.02-1.19-4.51-1.82c-0.41-0.17-0.82-0.33-1.22-0.52c-1.87-0.81-3.71-1.67-5.52-2.57c-0.93-0.46-1.85-0.94-2.77-1.41
	c-0.53-0.27-1.07-0.55-1.6-0.82c-1.18-0.64-2.35-1.3-3.51-1.98c-0.27-0.16-0.56-0.31-0.84-0.47c-1.43-0.84-2.85-1.7-4.25-2.59
	c-0.43-0.27-0.85-0.57-1.28-0.86c-0.92-0.6-1.84-1.2-2.75-1.82c-1.95-1.35-3.85-2.76-5.72-4.19c-0.43-0.34-0.86-0.67-1.29-1.01
	c-19.94-15.74-35.74-37.25-43.25-61.64c-7.87-25.3-6.18-53.69,7.47-76.73"/>
<path class="st1" d="M239.71,12.48c-12.09,17.79-13.28,39.89-4.89,59.55c8.85,20.86,26.98,37.22,48.14,44.98
	c0.87,0.32,1.74,0.61,2.63,0.91c0.39,0.12,0.77,0.25,1.16,0.37c1.25,0.39,2.48,0.85,3.77,1.09c58.47,11.3,74.33-30.01,78.56-36.08
	c-13.89,20-37.24,24.81-65.89,17.85c-2.26-0.55-4.75-1.37-6.93-2.14c-2.8-1-5.55-2.13-8.23-3.42c-5.09-2.44-9.94-5.41-14.43-8.81
	C247.95,67.32,232.03,30.22,248.76,0"/>
<path class="st1" d="M143.14,436.82l-4.95,11.28h-5.47l0.45-10.25l-4.03,10.25h-5.3l-0.14-11.28l0.58-2.79h3.75l-0.72,11.14
	l4.16-11.14h5.23l-0.38,11.28l4.13-11.28h3.27L143.14,436.82L143.14,436.82z"/>
<path class="st1" d="M151.77,440.16c0.48-2.2,0.34-2.61-0.79-2.61h-1.72l-1.1,5.16l-1.69,5.4h-3.2l2.61-12.24l0.38-1.79h2.92
	l0.38,0.83c0,0,1.69-1,3.33-1c3.51,0,3.23,2.65,2.48,6.26L151.77,440.16L151.77,440.16z"/>
<path class="st1" d="M162.16,432.28c-1.41,0-2.3-0.41-1.96-2.13c0.38-1.72,1.48-2.13,2.85-2.13c1.38,0,2.31,0.41,1.93,2.13
	C164.64,431.83,163.54,432.28,162.16,432.28L162.16,432.28z M160.65,448.1h-3.17l0.62-5.5l1.1-5.09l-2.2-0.48l0.62-2.99h6.02
	L160.65,448.1L160.65,448.1z"/>
<path class="st1" d="M174.37,437.02l-3.96,0.48l-1.14,5.37c-0.31,1.48-0.31,1.89,1,1.89h2.65l-0.55,2.82c0,0-2.41,0.72-3.44,0.72
	c-4.06,0-4.02-2.24-3.3-5.57l1.1-5.26l-2.2-0.48l0.65-2.99h2.31l1.31-3.54h3.13l-0.76,3.54h3.85L174.37,437.02L174.37,437.02z"/>
<path class="st1" d="M182.59,437.2c-1.86,0-2.82,0.96-3.2,2.68l5.3-0.45C184.93,438.26,184.69,437.2,182.59,437.2L182.59,437.2z
	 M178.88,442.42c-0.24,1.72,0.41,2.3,2.61,2.3h5.54l-0.55,2.61c0,0-3.34,0.93-5.81,0.93c-6.16,0-6.23-3.47-5.43-7.19
	c0.79-3.65,2.2-7.26,8.15-7.26c5.75,0,6.02,3.47,4.61,8.6L178.88,442.42L178.88,442.42z"/>
<path class="st1" d="M200.61,448.1h-3.16l0.62-5.5l2.24-10.46l-2.2-0.52l0.65-2.99h6.02L200.61,448.1L200.61,448.1z"/>
<path class="st1" d="M212.04,437.2c-1.86,0-2.82,0.96-3.2,2.68l5.3-0.45C214.38,438.26,214.14,437.2,212.04,437.2L212.04,437.2z
	 M208.33,442.42c-0.24,1.72,0.41,2.3,2.61,2.3h5.54l-0.55,2.61c0,0-3.34,0.93-5.81,0.93c-6.16,0-6.22-3.47-5.43-7.19
	c0.79-3.65,2.2-7.26,8.15-7.26c5.74,0,6.02,3.47,4.61,8.6L208.33,442.42L208.33,442.42z"/>
<path class="st1" d="M231.95,437.37c0,0-4.02,0.03-5.12,0.03c-2.34,0-2.58,0.72-2.75,1.48l-0.14,0.69l7.43,0.55
	c0,0,0.03,2.37-0.28,3.71c-0.45,2.24-2.75,4.5-6.91,4.5c-2.07,0-5.4-0.79-5.4-0.79l0.58-2.72h5.13c2.27,0,2.58-0.62,2.72-1.24
	l0.17-0.89l-7.29-0.55c0,0-0.27-1.82,0.1-3.64c0.55-2.48,2.82-4.61,6.98-4.61c2.06,0,5.4,0.75,5.4,0.75L231.95,437.37L231.95,437.37
	z"/>
<path class="st1" d="M245.78,437.37c0,0-4.02,0.03-5.12,0.03c-2.34,0-2.58,0.72-2.75,1.48l-0.14,0.69l7.43,0.55
	c0,0,0.03,2.37-0.28,3.71c-0.45,2.24-2.75,4.5-6.91,4.5c-2.06,0-5.4-0.79-5.4-0.79l0.58-2.72h5.13c2.27,0,2.58-0.62,2.72-1.24
	l0.17-0.89l-7.29-0.55c0,0-0.27-1.82,0.1-3.64c0.55-2.48,2.82-4.61,6.98-4.61c2.06,0,5.4,0.75,5.4,0.75L245.78,437.37L245.78,437.37
	z"/>
<path class="st1" d="M250.11,450.34h-2.75l0.1-2.07c-1-0.07-1.51-0.79-1.27-1.99c0.38-1.72,1.45-2.13,2.86-2.13
	c1.38,0,2.3,0.41,1.93,2.13L250.11,450.34L250.11,450.34z"/>
<path class="st1" d="M268.51,437.51c-2.06,0-2.78,1.24-3.27,3.51c-0.48,2.27-0.34,3.61,1.72,3.61h2.86l1.58-7.12H268.51z
	 M273.23,446.28l-0.38,1.82l-2.89-0.03l-0.41-0.89c0,0-2.55,1.1-4.26,1.1c-4.4,0-4.61-3.61-3.82-7.26c0.79-3.72,2.51-7.22,6.88-7.22
	c1.58,0,3.71,0.79,3.71,0.79l1.75-5.95h3.17L273.23,446.28L273.23,446.28z"/>
<path class="st1" d="M284.61,437.37c-2.68,0-3.54,1.51-4.02,3.71c-0.45,2.24-0.24,3.75,2.41,3.75c2.75,0,3.58-1.48,4.06-3.75
	C287.54,438.95,287.4,437.37,284.61,437.37L284.61,437.37z M282.28,448.3c-5.68,0-6.12-3.54-5.37-7.22
	c0.79-3.68,2.79-7.19,8.46-7.19c5.64,0,6.16,3.51,5.36,7.19C289.95,444.83,287.95,448.3,282.28,448.3z"/>
<path class="st1" d="M314.47,448.1l0.62-5.43l0.31-1.55c0.45-2.06,0.72-3.58-1.45-3.58h-1.68c0.07,1.07-0.14,2.27-0.41,3.54
	l-1.48,7.02h-3.2l0.62-5.43l0.31-1.55c0.45-2.06,0.72-3.58-1.44-3.58h-1.38l-2.27,10.56h-3.68l2.99-14.07h2.89l0.45,0.86
	c0,0,1.96-1.03,3.54-1.03c1.2,0,2.1,0.55,2.41,1.24c0.69-0.38,2.65-1.24,4.06-1.24c4.4,0,4.26,3.58,3.47,7.22l-1.48,7.02
	L314.47,448.1L314.47,448.1z"/>
<path class="st1" d="M329.09,437.37c-2.68,0-3.54,1.51-4.02,3.71c-0.45,2.24-0.24,3.75,2.41,3.75c2.75,0,3.58-1.48,4.06-3.75
	C332.02,438.95,331.88,437.37,329.09,437.37z M326.75,448.3c-5.68,0-6.12-3.54-5.37-7.22c0.79-3.68,2.79-7.19,8.46-7.19
	c5.64,0,6.16,3.51,5.36,7.19C334.43,444.83,332.43,448.3,326.75,448.3z"/>
<path class="st1" d="M344.77,440.16c0.48-2.2,0.34-2.61-0.79-2.61h-1.72l-1.1,5.16l-1.69,5.4h-3.2l2.61-12.24l0.38-1.79h2.92
	l0.38,0.83c0,0,1.69-1,3.34-1c3.51,0,3.23,2.65,2.47,6.26L344.77,440.16L344.77,440.16z"/>
<path class="st1" d="M357.09,437.2c-1.86,0-2.82,0.96-3.2,2.68l5.29-0.45C359.43,438.26,359.19,437.2,357.09,437.2L357.09,437.2z
	 M353.38,442.42c-0.24,1.72,0.41,2.3,2.61,2.3h5.54l-0.55,2.61c0,0-3.34,0.93-5.81,0.93c-6.16,0-6.23-3.47-5.44-7.19
	c0.79-3.65,2.2-7.26,8.15-7.26c5.74,0,6.02,3.47,4.61,8.6L353.38,442.42L353.38,442.42z"/>
<path class="st1" d="M365.58,448.31c-1.45,0-2.34-0.41-1.96-2.1c0.34-1.72,1.41-2.13,2.86-2.13c1.34,0,2.27,0.41,1.93,2.13
	C368.03,447.86,366.93,448.31,365.58,448.31z"/>
</svg>
